<svg width="38" height="39" viewBox="0 0 38 39" fill="none" xmlns="http://www.w3.org/2000/svg">
<path d="M17.1 9.3683C15.0913 8.36371 12.8348 7.80005 10.45 7.80005C8.0652 7.80005 5.80867 8.36371 3.8 9.3683V28.8683C5.80867 27.8637 8.0652 27.3 10.45 27.3C13.6203 27.3 16.564 28.2962 19 30.0002C21.436 28.2962 24.3797 27.3 27.55 27.3C29.9348 27.3 32.1913 27.8637 34.2 28.8683V9.3683C32.1913 8.36371 29.9348 7.80005 27.55 7.80005C25.1652 7.80005 22.9087 8.36371 20.9 9.3683V23.4C20.9 24.477 20.0493 25.35 19 25.35C17.9507 25.35 17.1 24.477 17.1 23.4V9.3683Z" fill="#ff6600" fill-opacity="1"/>
</svg>
