<svg width="38" height="39" viewBox="0 0 38 39" fill="none" xmlns="http://www.w3.org/2000/svg">
<path fill-rule="evenodd" clip-rule="evenodd" d="M7.6 7.80003C7.6 5.64612 9.30132 3.90002 11.4 3.90002H20.113C21.1208 3.90002 22.0874 4.31092 22.8 5.04231L29.287 11.7C29.9996 12.4314 30.4 13.4234 30.4 14.4577V31.2C30.4 33.3539 28.6987 35.1 26.6 35.1H11.4C9.30132 35.1 7.6 33.3539 7.6 31.2V7.80003ZM11.4 19.5C11.4 18.4231 12.2507 17.55 13.3 17.55H24.7C25.7493 17.55 26.6 18.4231 26.6 19.5C26.6 20.577 25.7493 21.45 24.7 21.45H13.3C12.2507 21.45 11.4 20.577 11.4 19.5ZM13.3 25.35C12.2507 25.35 11.4 26.2231 11.4 27.3C11.4 28.377 12.2507 29.25 13.3 29.25H24.7C25.7493 29.25 26.6 28.377 26.6 27.3C26.6 26.2231 25.7493 25.35 24.7 25.35H13.3Z" fill="#ff6600" fill-opacity="1"/>
</svg>
