<svg width="28" height="34" viewBox="0 0 28 34" fill="none" xmlns="http://www.w3.org/2000/svg">
    <path d="M17.19 4.25C17.19 6.01 15.77 7.43 14 7.43C12.23 7.43 10.81 6.01 10.81 4.25C10.81 2.49 12.23 1.07 14 1.07C15.77 1.07 17.19 2.49 17.19 4.25ZM23.56 14.875H4.44C3.27 14.875 2.43 15.47 2.58 16.21C2.79 17.27 2.89 17.81 3.11 18.87C3.26 19.61 4.24 20.19 5.31 20.19H6.81L6.61 17.54C6.58 17.25 6.81 17 7.1 17H20.9C21.19 17 21.42 17.26 21.39 17.54L21.19 20.19H22.69C23.76 20.19 24.74 19.61 24.89 18.87C25.11 17.81 25.21 17.27 25.42 16.21C25.57 15.47 24.73 14.875 23.57 14.875H23.56ZM7.63 18.06L8.6 31.75C8.64 32.42 9.12 32.93 9.7 32.93H18.3C18.88 32.93 19.36 32.42 19.4 31.75L20.37 18.06H7.63ZM16.13 8.5C15.87 10.45 15.32 11.78 14.85 12.62C14.81 11 14.54 9.58 14.54 9.58C14.54 9.58 15.07 9.02 15.07 8.51H12.93C12.93 9.02 13.46 9.58 13.46 9.58C13.46 9.58 13.19 11 13.15 12.62C12.68 11.78 12.13 10.45 11.87 8.5C10.85 8.5 7.64 8.5 7.64 11.68V13.81H20.36V11.68C20.36 8.5 17.15 8.5 16.14 8.5H16.13Z" fill="#ff6600"/>
</svg>
