<svg width="30" height="40" viewBox="0 0 30 40" fill="none" xmlns="http://www.w3.org/2000/svg">
<g clip-path="url(#clip0_404_1239)">
<path d="M23.207 36.9573L17.6069 35.5961C16.5277 35.2873 15.6644 34.5667 15.1305 33.6516H14.9488C14.4149 34.5781 13.5516 35.2873 12.4838 35.5961L6.89502 36.9573V40.0113H23.2184V36.9687L23.207 36.9573Z" fill="#ff6600"/>
<path d="M15.0397 14.5954C19.0382 14.5954 22.287 11.324 22.287 7.29768C22.287 3.27138 19.0496 0 15.0397 0C11.0299 0 7.79248 3.27138 7.79248 7.29768C7.79248 11.324 11.0412 14.5954 15.0397 14.5954Z" fill="#ff6600"/>
<path d="M4.23734 35.7909C6.77047 35.3677 11.9958 33.9379 11.9958 33.9379C13.2566 33.5719 14.0291 32.2679 13.7905 30.9982C13.5406 29.7286 12.3593 28.8707 11.0643 29.088L5.92988 29.8315L5.43007 23.792C5.39599 23.3345 5.69133 23.1972 6.00939 23.2544L15.0514 24.8787L23.9912 23.2659C24.3661 23.1972 24.7182 23.3917 24.6501 23.8607L24.1616 29.8201L19.0272 29.0766C17.7322 28.8592 16.5395 29.7171 16.3009 30.9868C16.051 32.2564 16.8235 33.5604 18.0957 33.9264C18.0957 33.9264 23.3324 35.3105 25.8541 35.7795C28.3078 36.237 30.0003 35.1389 30.0117 32.9885C30.0344 29.9916 29.4096 26.7889 29.0348 25.2562C27.4445 18.7248 23.0825 16.0826 17.9367 15.7166H12.1889C7.04309 16.0826 2.66975 18.7248 1.0908 25.2562C0.715944 26.7431 0.0684624 29.8315 0.000306394 32.7369C-0.0337716 34.4412 1.02265 36.3171 4.23734 35.7909Z" fill="#ff6600"/>
</g>
<defs>
<clipPath id="clip0_404_1239">
<rect width="30" height="40" fill="white"/>
</clipPath>
</defs>
</svg>
