<svg width="33" height="42" viewBox="0 0 33 42" fill="none" xmlns="http://www.w3.org/2000/svg">
<g clip-path="url(#clip0_405_1846)">
<path d="M17.2856 39.3693C17.2725 39.4049 17.2631 39.4405 17.25 39.4762V21.3562C16.98 21.1518 16.7288 20.9287 16.5 20.6812C16.2712 20.9287 16.02 21.1555 15.75 21.358V39.4743C15.7369 39.4387 15.7275 39.403 15.7144 39.3674C13.2262 32.5837 7.41187 27.3768 0 25.498C0.613125 34.108 7.51125 41.008 16.5 41.998C25.4888 41.008 32.3869 34.108 33 25.498C25.59 27.3768 19.7738 32.5837 17.2856 39.3674V39.3693Z" fill="#ff6600"/>
<path d="M26.3832 11.6569C27.4163 10.4531 27.5851 8.9625 27.1801 7.725C26.1488 4.52625 21.8251 3.88125 19.8601 6.57C21.8532 3.83813 19.8863 0 16.5001 0C13.1138 0 11.0963 3.7725 13.1401 6.57L13.2151 6.69C11.3026 3.87 6.88134 4.44187 5.82009 7.725C4.79447 10.905 7.82822 13.9781 11.0701 12.93L11.1901 12.9C7.85259 13.8506 7.13822 18.2119 9.90009 20.22C12.7201 22.2412 16.4776 20.1244 16.5001 16.875C16.5001 19.77 19.6201 21.9769 22.4907 20.58C25.7907 18.9713 25.4926 14.0831 21.9301 12.93C21.9151 12.9244 21.872 12.9113 21.8307 12.8981C23.5426 13.3313 25.0576 13.2 26.3832 11.6569ZM16.5001 14.91C14.462 14.91 12.7501 13.2562 12.7501 11.175C12.7501 9.09375 14.4207 7.44 16.5001 7.44C18.5795 7.44 20.2501 9.10125 20.2501 11.175C20.2501 13.2487 18.527 14.91 16.5001 14.91Z" fill="#ff6600"/>
</g>
<defs>
<clipPath id="clip0_405_1846">
<rect width="33" height="42" fill="white"/>
</clipPath>
</defs>
</svg>
