<svg width="16" height="12" viewBox="0 0 16 12" fill="none" xmlns="http://www.w3.org/2000/svg">
<path d="M14.8731 0.490323C14.2194 -0.163441 13.156 -0.163441 12.5023 0.490323L5.77558 7.21701L2.86121 4.30264C2.20744 3.64887 1.14409 3.64887 0.490324 4.30264C-0.163441 4.9564 -0.163441 6.01975 0.490324 6.67352L4.5862 10.7694C4.5862 10.7694 4.5862 10.7694 4.5862 10.7773C4.91702 11.1081 5.34236 11.2656 5.77558 11.2656C6.2088 11.2656 6.63414 11.1002 6.96496 10.7773C6.96496 10.7773 6.96496 10.7773 6.96496 10.7694L14.8731 2.86908C15.5269 2.21532 15.5269 1.15196 14.8731 0.4982V0.490323Z" fill="#253081"/>
</svg>
