<svg width="20" height="15" viewBox="0 0 20 15" fill="none" xmlns="http://www.w3.org/2000/svg">
<g clip-path="url(#clip0_321_1354)">
<path d="M18.8901 0.620059C18.0601 -0.209941 16.7101 -0.209941 15.8801 0.620059L7.34007 9.16006L3.64007 5.46006C2.81007 4.63006 1.46007 4.63006 0.630068 5.46006C-0.199932 6.29006 -0.199932 7.64006 0.630068 8.47006L5.83007 13.6701C5.83007 13.6701 5.83007 13.6701 5.83007 13.6801C6.25007 14.1001 6.79007 14.3001 7.34007 14.3001C7.89007 14.3001 8.43007 14.0901 8.85007 13.6801C8.85007 13.6801 8.85007 13.6801 8.85007 13.6701L18.8901 3.64006C19.7201 2.81006 19.7201 1.46006 18.8901 0.630059V0.620059Z" fill="white"/>
</g>
<defs>
<clipPath id="clip0_321_1354">
<rect width="19.52" height="14.31" fill="white"/>
</clipPath>
</defs>
</svg>
