<svg width="37" height="31" viewBox="0 0 37 31" fill="none" xmlns="http://www.w3.org/2000/svg">
<g clip-path="url(#clip0_404_1193)">
<path d="M17.9701 0C14.9901 0 12.5801 2.41 12.5801 5.39C12.5801 8.37 14.9901 10.78 17.9701 10.78C20.9501 10.78 23.3601 8.37 23.3601 5.39C23.3601 2.41 20.9501 0 17.9701 0Z" fill="#ff6600"/>
<path d="M18.7802 30.6399H24.7802L24.7602 17.8399C26.8202 16.9799 31.3802 14.4799 35.5202 8.12991C36.3002 6.97991 36.2502 5.46991 35.4202 4.80991C34.8202 4.32991 33.3802 3.90991 32.4302 4.98991C28.1602 9.81991 24.1202 12.7999 18.0302 12.7999C11.9402 12.7999 7.91018 9.82991 3.64018 4.99991C2.69018 3.91991 1.26018 4.33991 0.650177 4.81991C-0.179823 5.48991 -0.229823 6.98991 0.550177 8.13991C4.68018 14.4699 9.23018 16.9699 11.3002 17.8399L11.3402 30.6399H17.3202" fill="#ff6600"/>
</g>
<defs>
<clipPath id="clip0_404_1193">
<rect width="36.08" height="30.64" fill="white"/>
</clipPath>
</defs>
</svg>
