<svg width="16" height="18" viewBox="0 0 16 18" fill="none" xmlns="http://www.w3.org/2000/svg">
<path d="M9.66683 0.891054V4.33317C9.66683 4.79988 9.66683 5.03324 9.75766 5.2115C9.83755 5.3683 9.96504 5.49578 10.1218 5.57568C10.3001 5.6665 10.5335 5.6665 11.0002 5.6665H14.4423M14.6668 7.32336V13.3332C14.6668 14.7333 14.6668 15.4334 14.3943 15.9681C14.1547 16.4386 13.7722 16.821 13.3018 17.0607C12.767 17.3332 12.067 17.3332 10.6668 17.3332H5.3335C3.93336 17.3332 3.2333 17.3332 2.69852 17.0607C2.22811 16.821 1.84566 16.4386 1.60598 15.9681C1.3335 15.4334 1.3335 14.7333 1.3335 13.3332V4.6665C1.3335 3.26637 1.3335 2.56631 1.60598 2.03153C1.84566 1.56112 2.22811 1.17867 2.69852 0.938988C3.2333 0.666504 3.93336 0.666504 5.3335 0.666504H8.00998C8.62145 0.666504 8.92719 0.666504 9.21491 0.735579C9.47 0.796821 9.71386 0.897832 9.93754 1.0349C10.1898 1.18951 10.406 1.4057 10.8384 1.83808L13.4953 4.49493C13.9276 4.92731 14.1438 5.1435 14.2984 5.39579C14.4355 5.61947 14.5365 5.86333 14.5978 6.11842C14.6668 6.40614 14.6668 6.71188 14.6668 7.32336Z" stroke="#8389B5" stroke-linecap="round" stroke-linejoin="round"/>
</svg>
