<svg width="13" height="19" viewBox="0 0 13 19" fill="none" xmlns="http://www.w3.org/2000/svg">
<path d="M12.6719 1.86184L9.50352 0.0861541C9.18804 -0.0903069 8.78424 0.0129584 8.60103 0.31682L7.62705 1.93543L11.9399 4.34298L12.911 2.72911C13.0934 2.42604 12.9866 2.03791 12.6719 1.86184ZM7.37976 2.34652L0.907004 13.1031L0.00820378 18.3404C-0.0304101 18.5655 0.0690001 18.7966 0.270285 18.916C0.481429 19.0419 0.745154 19.0249 0.936169 18.8745L5.21902 15.5111L11.6926 4.75406L7.37976 2.34652ZM1.48744 17.8292L0.673266 17.3746L1.37818 13.2665L1.37941 13.276C1.45047 13.7702 1.93931 14.0432 2.41952 13.8568L2.42855 13.8533H2.42938L2.52345 14.1892C2.63477 14.5852 3.02625 14.8036 3.43827 14.7L3.78702 14.6117H3.78785L3.78908 14.6216C3.8622 15.1162 4.3535 15.3845 4.82919 15.2021L4.83823 15.1985L1.48744 17.8292Z" fill="white"/>
</svg>
