<svg width="23" height="24" viewBox="0 0 23 24" fill="none" xmlns="http://www.w3.org/2000/svg">
<path d="M16.4492 19.3849C14.4157 19.3849 12.6908 20.7014 12.0757 22.5273V16.1872C16.2328 15.838 19.4984 12.3561 19.4984 8.10866V0C15.0201 0 11.3888 3.63037 11.3888 8.10963C11.3898 3.63037 7.75843 0 3.28014 0V8.10963C3.28014 12.357 6.54572 15.839 10.7029 16.1882V22.5292C10.0878 20.7024 8.36284 19.3869 6.32937 19.3869H0C0 21.9355 2.06646 24.0019 4.61509 24.0019H18.1635C20.7121 24.0019 22.7786 21.9355 22.7786 19.3869H16.4492V19.3849Z" fill="#F4A9C1"/>
</svg>
