<svg width="24" height="24" viewBox="0 0 24 24" fill="none" xmlns="http://www.w3.org/2000/svg">
<g clip-path="url(#clip0_2532_1499)">
<path d="M10.7356 12.5234H3.14543C0.91781 12.5234 -0.61084 14.7842 0.237778 16.8432C0.250091 16.8736 0.262403 16.9029 0.275663 16.9332C1.13281 18.9686 3.80652 19.4535 5.36738 17.8917L10.7356 12.5234Z" fill="#253081"/>
<path d="M13.2654 11.4762H20.8556C23.0832 11.4762 24.6119 9.21545 23.7632 7.15641C23.7509 7.1261 23.7386 7.09674 23.7254 7.06643C22.8682 5.03107 20.1945 4.54615 18.6337 6.10795L13.2654 11.4762Z" fill="#253081"/>
<path d="M11.4763 10.7356V3.14543C11.4763 0.91781 9.21557 -0.61084 7.15653 0.237778C7.12622 0.250091 7.09686 0.262403 7.06656 0.274716C5.0312 1.13186 4.54627 3.80558 6.10807 5.36643L11.4763 10.7347V10.7356Z" fill="#253081"/>
<path d="M12.5237 3.14534V10.7356L17.892 5.36728C19.4538 3.80548 18.9688 1.13271 16.9335 0.27557C16.9032 0.263258 16.8738 0.250945 16.8435 0.238633C14.7845 -0.609986 12.5237 0.918665 12.5237 3.14629V3.14534Z" fill="#253081"/>
<path d="M10.7356 11.4762L5.36738 6.10795C3.80558 4.54615 1.13281 5.03107 0.275663 7.06643C0.263351 7.09674 0.251038 7.1261 0.237778 7.15641C-0.61084 9.21545 0.91781 11.4762 3.14543 11.4762H10.7356Z" fill="#253081"/>
<path d="M13.2654 12.5234L18.6337 17.8917C20.1955 19.4535 22.8682 18.9686 23.7254 16.9332C23.7377 16.9029 23.75 16.8736 23.7632 16.8432C24.6119 14.7842 23.0832 12.5234 20.8556 12.5234H13.2654Z" fill="#253081"/>
<path d="M12.5239 13.2656V20.8558C12.5239 23.0835 14.7847 24.6121 16.8437 23.7635C16.874 23.7512 16.9034 23.7389 16.9337 23.7256C18.9691 22.8685 19.454 20.1947 17.8922 18.6339L12.5239 13.2656Z" fill="#253081"/>
<path d="M11.4763 13.2656L6.10807 18.6339C4.54627 20.1957 5.0312 22.8684 7.06656 23.7256C7.09686 23.7379 7.12622 23.7502 7.15653 23.7625C9.21557 24.6111 11.4763 23.0825 11.4763 20.8549V13.2646V13.2656Z" fill="#253081"/>
</g>
<defs>
<clipPath id="clip0_2532_1499">
<rect width="24" height="24" fill="white"/>
</clipPath>
</defs>
</svg>
