<svg width="23" height="23" viewBox="0 0 23 23" fill="none" xmlns="http://www.w3.org/2000/svg">
<g clip-path="url(#clip0_404_1709)">
<path d="M11.4998 6.39539C8.6703 6.39539 6.37646 8.69596 6.37646 11.5338C6.37646 14.7976 8.89523 15.1995 9.10182 18.1634C9.1173 18.3854 9.30089 18.5579 9.52276 18.5579H13.4769C13.6988 18.5579 13.8824 18.3854 13.8978 18.1634C14.1043 15.1985 16.6232 14.7837 16.6232 11.5338C16.6232 8.69596 14.3294 6.39539 11.4998 6.39539ZM11.5003 8.33864C9.74432 8.33864 8.31576 9.77139 8.31576 11.5326C8.31576 11.7581 8.1334 11.941 7.90847 11.941C7.68355 11.941 7.50119 11.7581 7.50119 11.5326C7.50119 9.32094 9.29518 7.52167 11.5003 7.52167C11.7253 7.52167 11.9076 7.70457 11.9076 7.93016C11.9076 8.15574 11.7253 8.33864 11.5003 8.33864Z" fill="#253081"/>
<path d="M13.3882 19.0438H9.61241C9.3381 19.0438 9.11572 19.2669 9.11572 19.542C9.11572 19.8171 9.3381 20.0401 9.61241 20.0401H13.3882C13.6625 20.0401 13.8848 19.8171 13.8848 19.542C13.8848 19.2669 13.6625 19.0438 13.3882 19.0438Z" fill="#253081"/>
<path d="M13.3882 20.5261H9.61241C9.3381 20.5261 9.11572 20.7492 9.11572 21.0243C9.11572 21.2994 9.3381 21.5224 9.61241 21.5224H13.3882C13.6625 21.5224 13.8848 21.2994 13.8848 21.0243C13.8848 20.7492 13.6625 20.5261 13.3882 20.5261Z" fill="#253081"/>
<path d="M10.6058 23H12.3947C12.9433 23 13.3881 22.5539 13.3881 22.0037H9.6123C9.6123 22.5539 10.0571 23 10.6057 23H10.6058Z" fill="#253081"/>
<path d="M22.4908 11.0231H19.9032C19.622 11.0231 19.394 11.2516 19.394 11.5337C19.394 11.8157 19.622 12.0443 19.9032 12.0443H22.4908C22.772 12.0443 23 11.8156 23 11.5337C23 11.2517 22.772 11.0231 22.4908 11.0231Z" fill="#253081"/>
<path d="M17.4422 6.08493C17.5724 6.08493 17.7027 6.03509 17.8022 5.93542L19.6321 4.10021C19.8309 3.90077 19.8309 3.57756 19.6321 3.37812C19.4333 3.17878 19.1109 3.17868 18.9121 3.37812L17.0822 5.21333C16.8834 5.41277 16.8834 5.73598 17.0822 5.93542C17.1817 6.03509 17.312 6.08493 17.4423 6.08493H17.4422Z" fill="#253081"/>
<path d="M11.4998 3.6165C11.781 3.6165 12.0089 3.38795 12.0089 3.1059V0.510603C12.0089 0.228546 11.781 0 11.4998 0C11.2187 0 10.9907 0.228546 10.9907 0.510603V3.1059C10.9907 3.38795 11.2186 3.6165 11.4998 3.6165Z" fill="#253081"/>
<path d="M4.08836 3.37816C3.88951 3.17872 3.56724 3.17872 3.36838 3.37816C3.16952 3.5776 3.16952 3.90081 3.36838 4.10025L5.19822 5.93546C5.2976 6.03513 5.42793 6.08496 5.55826 6.08496C5.68859 6.08496 5.81882 6.03513 5.9183 5.93546C6.11716 5.73602 6.11716 5.41271 5.9183 5.21337L4.08857 3.37816H4.08836Z" fill="#253081"/>
<path d="M3.60591 11.5337C3.60591 11.2516 3.37794 11.0231 3.09681 11.0231H0.509109C0.227877 11.0231 0 11.2516 0 11.5337C0 11.8157 0.227877 12.0443 0.509109 12.0443H3.09681C3.37794 12.0443 3.60591 11.8156 3.60591 11.5337Z" fill="#253081"/>
<path d="M5.19822 17.132L3.36838 18.9673C3.16952 19.1667 3.16952 19.4899 3.36838 19.6894C3.46776 19.789 3.59809 19.8389 3.72842 19.8389C3.85876 19.8389 3.98898 19.789 4.08846 19.6894L5.9182 17.8541C6.11706 17.6547 6.11706 17.3315 5.9182 17.132C5.71934 16.9327 5.39708 16.9327 5.19822 17.132Z" fill="#253081"/>
<path d="M17.8017 17.132C17.6029 16.9327 17.2805 16.9327 17.0817 17.132C16.883 17.3314 16.8829 17.6547 17.0817 17.8541L18.9116 19.6894C19.0109 19.789 19.1413 19.8389 19.2716 19.8389C19.4019 19.8389 19.5322 19.789 19.6316 19.6894C19.8305 19.4899 19.8305 19.1667 19.6316 18.9673L17.8018 17.132H17.8017Z" fill="#253081"/>
</g>
<defs>
<clipPath id="clip0_404_1709">
<rect width="23" height="23" fill="white"/>
</clipPath>
</defs>
</svg>
