<svg width="24" height="24" viewBox="0 0 24 24" fill="none" xmlns="http://www.w3.org/2000/svg">
<g clip-path="url(#clip0_2532_1525)">
<path d="M7.59684 12.4424H3.96085C1.77301 12.4424 0 14.2154 0 16.4023H7.59684V23.9991C9.78374 23.9991 11.5577 22.2261 11.5577 20.0383V16.4013C11.5577 14.2144 9.78469 12.4414 7.59684 12.4414V12.4424Z" fill="#83B692"/>
<path d="M12.4424 16.4032V20.0401C12.4424 22.227 14.2154 24.001 16.4032 24.001V16.4041H24.0001C24.0001 14.2172 22.2271 12.4442 20.0392 12.4442H16.4032C14.2163 12.4442 12.4424 14.2172 12.4424 16.4041V16.4032Z" fill="#83B692"/>
<path d="M11.5577 7.59684V3.95991C11.5577 1.77301 9.78469 0 7.59684 0V7.59684H0C0 9.78374 1.77301 11.5577 3.96085 11.5577H7.59684C9.78374 11.5577 11.5577 9.78469 11.5577 7.59684Z" fill="#83B692"/>
<path d="M16.4032 11.5577H20.0392C22.2261 11.5577 24.0001 9.78469 24.0001 7.59684H16.4032V0C14.2163 0 12.4424 1.77301 12.4424 3.96085V7.59779C12.4424 9.78469 14.2154 11.5586 16.4032 11.5586V11.5577Z" fill="#83B692"/>
</g>
<defs>
<clipPath id="clip0_2532_1525">
<rect width="24" height="24" fill="white"/>
</clipPath>
</defs>
</svg>
