<svg width="24" height="24" viewBox="0 0 24 24" fill="none" xmlns="http://www.w3.org/2000/svg">
<g clip-path="url(#clip0_2532_1514)">
<path d="M12.5596 15.2637V21.2969C12.5596 22.7896 13.77 24 15.2636 24.0009C16.7563 24.0009 17.9676 22.7905 17.9676 21.2969V18.7027L15.5269 16.262C15.3744 16.3236 15.2087 16.3596 15.0344 16.3596C14.3032 16.3596 13.7103 15.7667 13.7103 15.0355C13.7103 14.3043 14.3032 13.7114 15.0344 13.7114C15.7656 13.7114 16.3585 14.3043 16.3585 15.0355C16.3585 15.2098 16.3225 15.3755 16.2619 15.528L18.7026 17.9687H21.2967C22.7894 17.9687 24.0008 16.7583 24.0008 15.2647C24.0008 13.7711 22.7904 12.5607 21.2967 12.5607H15.2636C13.7709 12.5607 12.5605 13.7711 12.5596 15.2647V15.2637Z" fill="#F4B266"/>
<path d="M11.4403 15.2637V21.2969C11.4403 22.7895 10.2298 24.0009 8.73717 23.9999C7.24451 23.9999 6.03315 22.7895 6.03315 21.2969V18.7027L8.47293 16.262C8.62541 16.3235 8.79116 16.3595 8.96638 16.3595C9.69755 16.3595 10.2905 15.7666 10.2905 15.0355C10.2905 14.3043 9.69755 13.7114 8.96638 13.7114C8.2352 13.7114 7.64231 14.3043 7.64231 15.0355C7.64231 15.2097 7.67735 15.3755 7.73891 15.528L5.29818 17.9687H2.70403C1.21042 17.9668 0 16.7564 0 15.2637C0 13.7711 1.21042 12.5597 2.70403 12.5597H8.73717C10.2298 12.5597 11.4403 13.7701 11.4403 15.2637Z" fill="#F4B266"/>
<path d="M8.73623 11.4402H2.70403C1.21042 11.4402 0 10.2298 0 8.7362C0 7.24354 1.21042 6.03217 2.70403 6.03217H5.29818L7.73891 8.4729C7.67735 8.62539 7.64136 8.79113 7.64136 8.9654C7.64136 9.69658 8.23425 10.2895 8.96543 10.2895C9.69661 10.2895 10.2895 9.69658 10.2895 8.9654C10.2895 8.23423 9.69661 7.64133 8.96543 7.64133C8.79116 7.64133 8.62541 7.67732 8.47293 7.73793L6.0322 5.29721V2.70305C6.0322 1.21039 7.24262 -0.000976562 8.73623 -0.000976562C10.2289 -0.000976562 11.4403 1.20944 11.4403 2.70305V8.7362C11.4403 10.2289 10.2298 11.4402 8.73623 11.4402Z" fill="#F4B266"/>
<path d="M12.5596 8.73623V2.70403C12.5596 1.21042 13.7709 0 15.2636 0C16.7563 0 17.9676 1.21042 17.9676 2.70403V5.29818L15.5269 7.73891C15.3744 7.67735 15.2087 7.64136 15.0344 7.64136C14.3032 7.64136 13.7103 8.23425 13.7103 8.96543C13.7103 9.69755 14.3032 10.2895 15.0344 10.2895C15.7656 10.2895 16.3585 9.69661 16.3585 8.96543C16.3585 8.79116 16.3225 8.62541 16.2619 8.47293L18.7026 6.0322H21.2967C22.7904 6.0322 24.0008 7.24262 24.0008 8.73623C24.0008 10.2289 22.7904 11.4403 21.2967 11.4403H15.2636C13.77 11.4403 12.5596 10.2298 12.5596 8.73623Z" fill="#F4B266"/>
</g>
<defs>
<clipPath id="clip0_2532_1514">
<rect width="24" height="24" fill="white"/>
</clipPath>
</defs>
</svg>
