<svg width="11" height="20" viewBox="0 0 11 20" fill="none" xmlns="http://www.w3.org/2000/svg">
<path d="M10.3059 2.55729C9.84314 1.73027 9.22692 1.09729 8.45707 0.658278C7.68722 0.219537 6.75404 0 5.65759 0C3.95455 0 2.58198 0.530537 1.53999 1.59154C0.497883 2.65262 -0.0153517 3.99573 0.000349564 5.62096H3.05645C3.06406 4.89898 3.29737 4.30913 3.75632 3.85142C4.21509 3.3939 4.80211 3.16505 5.51762 3.16505C6.23314 3.16505 6.77538 3.35296 7.19146 3.7284C7.60742 4.10404 7.81553 4.56195 7.81553 5.10201C7.81553 5.49881 7.72984 5.84476 7.55891 6.14005C7.38779 6.4356 6.89001 6.97559 6.06588 7.76048C5.21035 8.57073 4.59211 9.43796 4.21117 10.3621C3.83011 11.2863 3.63967 12.3139 3.63967 13.4448L3.65132 14.0145H6.81243C6.8434 13.2042 6.91737 12.5713 7.03402 12.1155C7.15068 11.6597 7.2945 11.2948 7.46562 11.0205C7.63656 10.7463 8.06049 10.2757 8.73706 9.60884C9.44459 8.90842 9.89183 8.4105 10.0785 8.11501C10.3972 7.60864 10.6305 7.11492 10.7783 6.63377C10.926 6.15269 11 5.6633 11 5.16524C11 4.25375 10.7685 3.38458 10.306 2.55736L10.3059 2.55729ZM5.31351 15.4577C4.20872 15.4577 3.31307 16.4298 3.31307 17.6289C3.31307 18.8279 4.20872 19.8 5.31351 19.8C6.4183 19.8 7.31395 18.8279 7.31395 17.6289C7.31395 16.4298 6.4183 15.4577 5.31351 15.4577Z" fill="#55328f"/>
</svg>
