<svg width="37" height="39" viewBox="0 0 37 39" fill="none" xmlns="http://www.w3.org/2000/svg">
<g clip-path="url(#clip0_404_1305)">
<path d="M12.7734 16.4626L16.9372 20.5086C17.05 20.3637 17.1178 20.1965 17.1178 20.0071V13.5089C17.1178 13.364 17.0839 13.2303 17.0049 13.1077L12.7734 16.4738V16.4626Z" fill="#E50071"/>
<path d="M11.7471 16.5963L16.5879 12.751C16.4863 12.7064 16.3848 12.6841 16.2719 12.6841H6.08255C5.96971 12.6841 5.86816 12.7064 5.7666 12.751L10.6074 16.5963C10.9346 16.8638 11.4198 16.8638 11.7471 16.5963Z" fill="#E50071"/>
<path d="M9.59138 16.4625L5.35991 13.0964C5.29221 13.219 5.24707 13.3528 5.24707 13.4977V19.9958C5.24707 20.1853 5.31477 20.3637 5.42761 20.4974L9.59138 16.4514V16.4625Z" fill="#E50071"/>
<path d="M16.2714 20.8318C16.3391 20.8318 16.4068 20.8318 16.4632 20.8095L12.3446 16.8081L12.0851 17.0087C11.8255 17.2205 11.4983 17.3208 11.1711 17.3208C10.8438 17.3208 10.5279 17.2205 10.2571 17.0087L9.99754 16.8081L5.87891 20.8095C5.93533 20.8207 6.00303 20.8318 6.07073 20.8318H16.2601H16.2714Z" fill="#E50071"/>
<path d="M19.4873 0H2.8774C1.28637 0 0 1.27065 0 2.84224V36.1689C0 37.7405 1.28637 39.0111 2.8774 39.0111H19.4873C21.0784 39.0111 22.3647 37.7405 22.3647 36.1689V2.84224C22.3647 1.27065 21.0784 0 19.4873 0ZM7.08631 1.72764H15.2897C15.4928 1.72764 15.6621 2.02858 15.6621 2.40755C15.6621 2.78651 15.4928 3.0986 15.2897 3.0986H7.08631C6.8832 3.0986 6.71394 2.78651 6.71394 2.40755C6.71394 2.02858 6.8832 1.72764 7.08631 1.72764ZM11.1824 36.2023C10.1668 36.2023 9.34309 35.3887 9.34309 34.3855C9.34309 33.3824 10.1668 32.5799 11.1824 32.5799C12.1979 32.5799 13.0104 33.3935 13.0104 34.3855C13.0104 35.3775 12.1866 36.2023 11.1824 36.2023ZM20.2095 29.994H2.15523V4.7928H20.2095V29.9829V29.994Z" fill="#E50071"/>
<path d="M19.3857 16.3179L25.3211 10.8452V14.0999C25.3211 14.0999 27.2394 14.1667 28.2098 14.4788C29.1802 14.7909 31.0872 15.2256 31.4144 15.6715C31.7416 16.1173 33.0167 16.9867 33.7502 17.9452C34.4836 18.9038 35.3299 20.3194 35.4766 20.6649C35.6233 21.0104 36.0972 22.7269 36.3906 23.9641C36.684 25.2013 36.3906 27.007 36.3906 27.4417V28.6454C36.3906 28.6454 35.3412 29.0467 34.8673 28.8461C34.3934 28.6454 33.784 28.4448 33.2424 27.7761C32.7008 27.1073 32.3961 26.706 32.43 26.0038C32.4638 25.3016 32.4977 24.0644 32.4977 24.0644C32.4977 24.0644 32.4977 23.5628 32.193 22.8941C31.8883 22.2253 31.9222 21.9578 31.4144 21.3894C30.9066 20.8209 30.7599 20.2302 30.0491 19.8735C29.3382 19.5168 28.7401 18.9149 27.9615 18.5806C27.1829 18.2462 26.4043 18.157 25.8627 18.1124C25.3211 18.0679 25.3324 19.0821 25.3324 19.0821V21.4005L24.0009 20.2859L21.1912 17.9787L19.397 16.3179H19.3857Z" fill="white"/>
<path d="M36.3789 25.0229C36.3789 18.9817 31.4253 14.0886 25.3094 14.0886V10.834L19.374 16.3067L25.3094 21.3893V18.0566C29.2023 18.0566 32.3505 21.1664 32.3505 25.0117V25.5691C32.3505 27.2632 33.7385 28.6342 35.4536 28.6342H36.3789V25.0229Z" stroke="#E50071" stroke-width="1.08" stroke-miterlimit="10"/>
</g>
<defs>
<clipPath id="clip0_404_1305">
<rect width="37" height="39" fill="white"/>
</clipPath>
</defs>
</svg>
