<svg width="12" height="23" viewBox="0 0 12 23" fill="none" xmlns="http://www.w3.org/2000/svg">
<path d="M0.755884 17.8963C0.944208 17.8963 1.13253 17.8294 1.27817 17.6956C3.11119 16.0147 4.12061 13.7557 4.12061 11.3342C4.12061 8.91275 3.15513 6.75647 1.40121 5.08758C1.10742 4.80804 0.630335 4.80804 0.335294 5.08758C0.0415092 5.36713 0.0415092 5.82108 0.335294 6.10181C1.80422 7.49952 2.61276 9.35834 2.61276 11.3342C2.61276 13.3101 1.76656 15.2562 0.231088 16.6634C-0.0689745 16.9382 -0.0777626 17.3921 0.211001 17.6765C0.359149 17.8222 0.556261 17.8963 0.753374 17.8963H0.755884Z" fill="#253081"/>
<path d="M3.85458 20.31C4.05169 20.31 4.2488 20.2359 4.39695 20.0902C6.78992 17.726 8.10693 14.6153 8.10693 11.3325C8.10693 8.04965 6.78867 4.93647 4.39444 2.57233C4.10568 2.28681 3.62859 2.27845 3.32978 2.55321C3.02972 2.82797 3.02093 3.28193 3.3097 3.56625C5.43148 5.6628 6.60034 8.41998 6.60034 11.3325C6.60034 14.2449 5.43273 16.9997 3.31095 19.0963C3.02219 19.3818 3.03098 19.8357 3.33104 20.1093C3.47668 20.2431 3.665 20.31 3.85332 20.31H3.85458Z" fill="#253081"/>
<path d="M6.87375 22.6666C7.07589 22.6666 7.27802 22.5889 7.42617 22.4372C10.3766 19.4089 12.0024 15.4654 12.0024 11.3332C12.0024 7.20106 10.3766 3.25763 7.42491 0.229275C7.14243 -0.0610166 6.66534 -0.0777412 6.36026 0.191048C6.05517 0.459836 6.0376 0.913791 6.32008 1.20408C9.01311 3.96604 10.4959 7.56303 10.4959 11.3332C10.4959 15.1035 9.01311 18.7004 6.32134 21.4624C6.03885 21.7527 6.05643 22.2066 6.36151 22.4754C6.50589 22.6033 6.69045 22.6666 6.87375 22.6666Z" fill="#253081"/>
</svg>
