<svg width="27" height="40" viewBox="0 0 27 40" fill="none" xmlns="http://www.w3.org/2000/svg">
<g clip-path="url(#clip0_404_1301)">
<path d="M19.534 6.21768L19.3627 4.97869L19.3399 4.83092C19.1686 3.61466 18.3238 2.72805 17.342 2.72805H16.4515C16.4401 1.22762 15.2071 0 13.6887 0H13.3006C11.7822 0 10.5492 1.22762 10.5492 2.73941H9.64729C8.66547 2.73941 7.83207 3.62603 7.64941 4.84229L7.62657 4.99005L7.45533 6.22904C7.37541 6.75192 7.70649 7.24069 8.1289 7.24069H18.8376C19.26 7.24069 19.5796 6.75192 19.5111 6.22904L19.534 6.21768ZM13.8257 3.25092H13.1864C12.7754 3.25092 12.4329 2.90992 12.4329 2.50071C12.4329 2.0915 12.7754 1.7505 13.1864 1.7505H13.8257C14.2367 1.7505 14.5792 2.0915 14.5792 2.50071C14.5792 2.90992 14.2367 3.25092 13.8257 3.25092Z" fill="#E50071"/>
<path d="M24.6713 4.98999H20.3787L20.5386 6.08121C20.6185 6.66092 20.4587 7.252 20.0933 7.6612C19.7965 8.02494 19.3398 8.22955 18.8718 8.22955H8.15168C7.6836 8.22955 7.23836 8.02494 6.93011 7.6612C6.56478 7.24063 6.40495 6.64955 6.48487 6.08121L6.6447 4.98999H2.3521C1.06204 4.98999 0.0117188 6.03574 0.0117188 7.3202V37.6811C0.0117188 38.9656 1.06204 40.0113 2.3521 40.0113H24.6828C25.9728 40.0113 27.0231 38.9656 27.0231 37.6811V7.3202C27.0231 6.03574 25.9728 4.98999 24.6828 4.98999H24.6713ZM8.17451 33.2253L5.56013 35.8283C5.2633 36.1238 4.78381 36.1238 4.4984 35.8283L3.10559 34.4415C2.80876 34.1574 2.79734 33.68 3.08275 33.3844C3.36817 33.0889 3.84766 33.0775 4.14449 33.3617C4.14449 33.3617 4.15591 33.3731 4.16732 33.3844L5.02356 34.2369L7.10136 32.1682C7.39819 31.8726 7.87768 31.8726 8.16309 32.1682C8.44851 32.4637 8.45992 32.9411 8.16309 33.2253H8.17451ZM8.17451 26.3029L5.56013 28.9059C5.2633 29.2014 4.78381 29.2014 4.4984 28.9059L3.10559 27.5191C2.80876 27.2236 2.80876 26.7462 3.10559 26.462C3.40242 26.1665 3.88191 26.1665 4.16732 26.462L5.02356 27.3145L7.10136 25.2457C7.4096 24.9616 7.8891 24.9843 8.16309 25.2912C8.42567 25.5754 8.42567 26.0187 8.16309 26.3029H8.17451ZM8.17451 19.3918L5.56013 21.9948C5.2633 22.2904 4.78381 22.2904 4.4984 21.9948L3.10559 20.6081C2.80876 20.3239 2.79734 19.8465 3.08275 19.5509C3.36817 19.2554 3.84766 19.244 4.14449 19.5282C4.14449 19.5282 4.15591 19.5396 4.16732 19.5509L5.02356 20.4035L7.10136 18.3347C7.4096 18.0505 7.87768 18.0733 8.16309 18.3688C8.43709 18.653 8.43709 19.1076 8.16309 19.3918H8.17451ZM8.17451 12.4694L5.56013 15.0724C5.2633 15.3679 4.78381 15.3679 4.4984 15.0724L3.10559 13.6856C2.80876 13.3901 2.80876 12.9127 3.10559 12.6285C3.40242 12.333 3.88191 12.333 4.16732 12.6285L5.02356 13.481L7.10136 11.4123C7.39819 11.1281 7.87768 11.1395 8.16309 11.435C8.44851 11.7305 8.44851 12.1852 8.16309 12.4808L8.17451 12.4694ZM23.6096 34.487H9.85273C9.57874 34.487 9.35041 34.2597 9.35041 33.9869C9.35041 33.7141 9.57874 33.4867 9.85273 33.4867H23.621C23.895 33.4867 24.1233 33.7141 24.1233 33.9869C24.1233 34.2597 23.895 34.487 23.621 34.487H23.6096ZM23.6096 27.576H9.85273C9.57874 27.576 9.35041 27.3486 9.35041 27.0758C9.35041 26.803 9.57874 26.5757 9.85273 26.5757H23.621C23.895 26.5757 24.1233 26.803 24.1233 27.0758C24.1233 27.3486 23.895 27.576 23.621 27.576H23.6096ZM23.6096 20.6649H9.85273C9.57874 20.6649 9.35041 20.4376 9.35041 20.1648C9.35041 19.892 9.57874 19.6646 9.85273 19.6646H23.621C23.895 19.6646 24.1233 19.892 24.1233 20.1648C24.1233 20.4376 23.895 20.6649 23.621 20.6649H23.6096ZM23.6096 13.7425H9.85273C9.57874 13.7425 9.35041 13.5151 9.35041 13.2423C9.35041 12.9695 9.57874 12.7422 9.85273 12.7422H23.621C23.895 12.7422 24.1233 12.9695 24.1233 13.2423C24.1233 13.5151 23.895 13.7425 23.621 13.7425H23.6096Z" fill="#E50071"/>
</g>
<defs>
<clipPath id="clip0_404_1301">
<rect width="27" height="40" fill="white"/>
</clipPath>
</defs>
</svg>
