<svg width="24" height="28" viewBox="0 0 24 28" fill="none" xmlns="http://www.w3.org/2000/svg">
<g clip-path="url(#clip0_2532_1491)">
<path d="M13.2648 12.1348H20.8547C23.0823 12.1348 24.6108 9.87466 23.7622 7.81489C23.7497 7.78516 23.7372 7.75543 23.7248 7.72475C22.8675 5.68895 20.194 5.20469 18.6329 6.76582L14.9631 10.4356C14.7866 10.1278 14.5642 9.85069 14.3043 9.61287L17.8926 6.02457C19.4547 4.46248 18.9695 1.78995 16.9337 0.932674C16.9039 0.920208 16.8742 0.907742 16.8435 0.895276C14.7847 0.046626 12.5236 1.57515 12.5236 3.80274V8.75847C12.3529 8.73258 12.1774 8.71819 12 8.71819C11.8226 8.71819 11.6471 8.73162 11.4764 8.75847V3.80274C11.4764 1.57515 9.21623 0.046626 7.15646 0.895276C7.12673 0.907742 7.097 0.920208 7.06632 0.932674C5.03052 1.78995 4.54626 4.46344 6.10739 6.02457L9.69569 9.61287C9.43582 9.85069 9.21335 10.1288 9.03691 10.4356L5.3671 6.76582C3.80501 5.20373 1.13248 5.68895 0.275203 7.72475C0.262737 7.75447 0.250271 7.7842 0.237805 7.81489C-0.610845 9.8737 0.917683 12.1348 3.14527 12.1348H11.2376V19.346C10.1176 16.5162 7.09029 13.858 2.55169 14.116C2.18538 20.5628 7.704 23.9603 11.2376 23.173V27.3425H12.7633V23.173C16.2969 23.9603 21.8156 20.5628 21.4492 14.116C16.9107 13.858 13.8833 16.5171 12.7633 19.346V12.1348H13.2658H13.2648Z" fill="#FC8DCA"/>
</g>
<defs>
<clipPath id="clip0_2532_1491">
<rect width="24" height="26.6831" fill="white" transform="translate(0 0.658447)"/>
</clipPath>
</defs>
</svg>
