<svg width="26" height="26" viewBox="0 0 26 26" fill="none" xmlns="http://www.w3.org/2000/svg">
<g clip-path="url(#clip0_2524_1212)">
<path d="M8.15468 14.856C8.83791 14.462 9.20937 13.7366 9.18056 13.001C9.20937 12.2653 8.83791 11.5388 8.15468 11.1448L3.08597 8.22574C2.10228 7.66039 0.84385 7.9959 0.275859 8.9768C-0.292132 9.9577 0.0453701 11.2126 1.02907 11.7779L3.1508 12.9999L1.02804 14.222C0.0443411 14.7883 -0.293161 16.0422 0.27483 17.0231C0.842822 18.004 2.10022 18.3395 3.08495 17.7741L8.15365 14.856H8.15468Z" fill="#F4A9C1"/>
<path d="M3.89664 6.82526L8.96534 9.74333C9.64858 10.1373 10.4656 10.0942 11.0902 9.70229C11.7425 9.35856 12.1881 8.67522 12.1881 7.88824V2.05209C12.1891 0.918311 11.2682 0 10.1322 0C8.99621 0 8.07528 0.918311 8.07528 2.05107V4.49408L5.95355 3.27206C4.96985 2.70568 3.71142 3.04223 3.14446 4.02313C2.57647 5.00403 2.91397 6.25888 3.89767 6.82423L3.89664 6.82526Z" fill="#F4A9C1"/>
<path d="M11.0912 16.2988C10.4656 15.9069 9.64966 15.8628 8.96539 16.2568L3.89669 19.1748C2.91299 19.7412 2.57549 20.995 3.14348 21.9759C3.71147 22.9568 4.96887 23.2924 5.95257 22.727L8.0743 21.505V23.948C8.0743 25.0808 8.99523 25.9991 10.1312 25.9991C11.2672 25.9991 12.1881 25.0808 12.1881 23.948V18.1119C12.1881 17.3238 11.7426 16.6415 11.0902 16.2978L11.0912 16.2988Z" fill="#F4A9C1"/>
<path d="M24.9708 14.2219L22.8491 12.9999L24.9708 11.7779C25.9545 11.2115 26.292 9.95769 25.723 8.97576C25.155 7.99486 23.8976 7.65935 22.9139 8.22572L17.8452 11.1438C17.162 11.5368 16.7915 12.2632 16.8193 12.9989C16.7915 13.7346 17.162 14.461 17.8452 14.855L22.9139 17.7731C23.8976 18.3395 25.155 18.0029 25.723 17.023C26.291 16.0421 25.9545 14.7873 24.9708 14.2209V14.2219Z" fill="#F4A9C1"/>
<path d="M14.9089 9.70121C15.5335 10.0932 16.3505 10.1373 17.0348 9.74328L22.1035 6.82521C23.0872 6.25883 23.4247 5.005 22.8567 4.0241C22.2887 3.0432 21.0303 2.70666 20.0466 3.27406L17.9249 4.49608V2.05204C17.9249 0.919288 17.0039 0.000976562 15.8679 0.000976562C14.732 0.000976562 13.811 0.919288 13.811 2.05204V7.88819C13.811 8.67517 14.2566 9.35851 14.9089 9.70224V9.70121Z" fill="#F4A9C1"/>
<path d="M22.1045 19.1747L17.0358 16.2566C16.3525 15.8636 15.5366 15.9057 14.912 16.2976C14.2586 16.6413 13.812 17.3247 13.812 18.1127V23.9488C13.812 25.0816 14.7329 25.9999 15.8689 25.9999C17.0049 25.9999 17.9258 25.0816 17.9258 23.9488V21.5048L20.0486 22.7268C21.0323 23.2932 22.2897 22.9567 22.8577 21.9768C23.4257 20.9959 23.0892 19.741 22.1055 19.1747H22.1045Z" fill="#F4A9C1"/>
</g>
<defs>
<clipPath id="clip0_2524_1212">
<rect width="26" height="26" fill="white"/>
</clipPath>
</defs>
</svg>
