<svg width="38" height="39" viewBox="0 0 38 39" fill="none" xmlns="http://www.w3.org/2000/svg">
<path fill-rule="evenodd" clip-rule="evenodd" d="M5.586 12.5042C4.47495 13.2169 3.8 14.4667 3.8 15.8114V31.1998C3.8 33.3537 5.50132 35.0998 7.6 35.0998H30.4C32.4987 35.0998 34.2 33.3537 34.2 31.1998V15.8114C34.2 14.4667 33.525 13.2169 32.414 12.5042L21.014 5.19168C19.7818 4.40128 18.2182 4.40127 16.986 5.19168L5.586 12.5042ZM10.5539 17.2275C9.68083 16.6301 8.50117 16.8723 7.9191 17.7683C7.33703 18.6644 7.57296 19.8751 8.44607 20.4725L17.9461 26.9725C18.5843 27.4092 19.4157 27.4092 20.0539 26.9725L29.5539 20.4725C30.427 19.8751 30.663 18.6644 30.0809 17.7683C29.4988 16.8723 28.3192 16.6301 27.4461 17.2275L19 23.0064L10.5539 17.2275Z" fill="#E50071" fill-opacity="0.5"/>
</svg>
