<svg width="18" height="18" viewBox="0 0 18 18" fill="none" xmlns="http://www.w3.org/2000/svg">
<path d="M6.49984 8.99984L8.1665 10.6665L11.9165 6.9165M5.11131 2.18208C5.78117 2.12863 6.4171 1.86522 6.92856 1.42935C8.12211 0.412221 9.87757 0.412221 11.0711 1.42935C11.5826 1.86522 12.2185 2.12863 12.8884 2.18208C14.4516 2.30683 15.6928 3.54812 15.8176 5.11131C15.871 5.78117 16.1345 6.4171 16.5703 6.92856C17.5875 8.12211 17.5875 9.87757 16.5703 11.0711C16.1345 11.5826 15.871 12.2185 15.8176 12.8884C15.6928 14.4516 14.4516 15.6928 12.8884 15.8176C12.2185 15.871 11.5826 16.1345 11.0711 16.5703C9.87757 17.5875 8.12211 17.5875 6.92856 16.5703C6.4171 16.1345 5.78117 15.871 5.11131 15.8176C3.54812 15.6928 2.30683 14.4516 2.18208 12.8884C2.12863 12.2185 1.86522 11.5826 1.42935 11.0711C0.412221 9.87757 0.412221 8.12211 1.42935 6.92856C1.86522 6.4171 2.12863 5.78117 2.18208 5.11131C2.30683 3.54812 3.54812 2.30683 5.11131 2.18208Z" stroke="#8389B5" stroke-linecap="round" stroke-linejoin="round"/>
</svg>
