<svg width="38" height="39" viewBox="0 0 38 39" fill="none" xmlns="http://www.w3.org/2000/svg">
<path fill-rule="evenodd" clip-rule="evenodd" d="M3.8 9.74998C3.8 7.59606 5.50132 5.84998 7.6 5.84998H22.8C24.8987 5.84998 26.6 7.59607 26.6 9.74998V29.25C26.6 31.4039 28.3013 33.15 30.4 33.15H7.6C5.50132 33.15 3.8 31.4039 3.8 29.25V9.74998ZM9.5 11.7H20.9V19.5H9.5V11.7ZM20.9 23.4H9.5V27.3H20.9V23.4Z" fill="#E50071" fill-opacity="0.5"/>
<path d="M28.5 13.65H30.4C32.4987 13.65 34.2 15.3961 34.2 17.55V28.275C34.2 29.8904 32.924 31.2 31.35 31.2C29.776 31.2 28.5 29.8904 28.5 28.275V13.65Z" fill="#E50071" fill-opacity="0.5"/>
</svg>
