<svg width="38" height="39" viewBox="0 0 38 39" fill="none" xmlns="http://www.w3.org/2000/svg">
<path fill-rule="evenodd" clip-rule="evenodd" d="M9.50005 3.90002C10.5494 3.90002 11.4 4.77307 11.4 5.85002V7.80002H13.3C14.3494 7.80002 15.2 8.67307 15.2 9.75002C15.2 10.827 14.3494 11.7 13.3 11.7H11.4V13.65C11.4 14.727 10.5494 15.6 9.50005 15.6C8.45071 15.6 7.60005 14.727 7.60005 13.65V11.7H5.70005C4.65071 11.7 3.80005 10.827 3.80005 9.75002C3.80005 8.67307 4.65071 7.80002 5.70005 7.80002H7.60005V5.85002C7.60005 4.77307 8.45071 3.90002 9.50005 3.90002ZM9.50005 23.4C10.5494 23.4 11.4 24.2731 11.4 25.35V27.3H13.3C14.3494 27.3 15.2 28.1731 15.2 29.25C15.2 30.327 14.3494 31.2 13.3 31.2H11.4V33.15C11.4 34.227 10.5494 35.1 9.50005 35.1C8.45071 35.1 7.60005 34.227 7.60005 33.15V31.2H5.70005C4.65071 31.2 3.80005 30.327 3.80005 29.25C3.80005 28.1731 4.65071 27.3 5.70005 27.3H7.60005V25.35C7.60005 24.2731 8.45071 23.4 9.50005 23.4Z" fill="#E50071" fill-opacity="0.5"/>
<path fill-rule="evenodd" clip-rule="evenodd" d="M22.7999 3.90002C23.662 3.90002 24.4161 4.49572 24.6367 5.35103L26.8772 14.0379L33.2494 17.811C33.8376 18.1592 34.1999 18.8031 34.1999 19.5C34.1999 20.1969 33.8376 20.8408 33.2494 21.1891L26.8772 24.9621L24.6367 33.649C24.4161 34.5043 23.662 35.1 22.7999 35.1C21.9379 35.1 21.1838 34.5043 20.9632 33.649L18.7227 24.9621L12.3506 21.1891C11.7624 20.8408 11.4 20.1969 11.4 19.5C11.4 18.8031 11.7624 18.1592 12.3506 17.811L18.7227 14.0379L20.9632 5.35103C21.1838 4.49572 21.9379 3.90002 22.7999 3.90002Z" fill="#E50071" fill-opacity="0.5"/>
</svg>
