<svg width="38" height="39" viewBox="0 0 38 39" fill="none" xmlns="http://www.w3.org/2000/svg">
<path d="M19 3.90002C20.0494 3.90002 20.9 4.77307 20.9 5.85002V7.80002C20.9 8.87698 20.0494 9.75002 19 9.75002C17.9507 9.75002 17.1 8.87698 17.1 7.80002V5.85002C17.1 4.77307 17.9507 3.90002 19 3.90002Z" fill="#E50071" fill-opacity="0.5"/>
<path d="M26.6 19.5C26.6 23.8078 23.1974 27.3 19 27.3C14.8027 27.3 11.4 23.8078 11.4 19.5C11.4 15.1922 14.8027 11.7 19 11.7C23.1974 11.7 26.6 15.1922 26.6 19.5Z" fill="#E50071" fill-opacity="0.5"/>
<path d="M25.7177 29.152L27.0612 30.5308C27.8032 31.2923 29.0062 31.2923 29.7482 30.5308C30.4902 29.7693 30.4902 28.5346 29.7482 27.7731L28.4047 26.3942C27.6627 25.6327 26.4597 25.6327 25.7177 26.3942C24.9757 27.1558 24.9757 28.3904 25.7177 29.152Z" fill="#E50071" fill-opacity="0.5"/>
<path d="M29.748 8.46906C30.49 9.23058 30.49 10.4653 29.748 11.2268L28.4045 12.6056C27.6625 13.3672 26.4595 13.3672 25.7175 12.6056C24.9755 11.8441 24.9755 10.6094 25.7175 9.84791L27.061 8.46906C27.803 7.70753 29.006 7.70753 29.748 8.46906Z" fill="#E50071" fill-opacity="0.5"/>
<path d="M32.3001 21.45C33.3494 21.45 34.2001 20.577 34.2001 19.5C34.2001 18.4231 33.3494 17.55 32.3001 17.55H30.4001C29.3507 17.55 28.5 18.4231 28.5 19.5C28.5 20.577 29.3507 21.45 30.4001 21.45H32.3001Z" fill="#E50071" fill-opacity="0.5"/>
<path d="M19 29.25C20.0494 29.25 20.9 30.1231 20.9 31.2V33.15C20.9 34.227 20.0494 35.1 19 35.1C17.9507 35.1 17.1 34.227 17.1 33.15V31.2C17.1 30.1231 17.9507 29.25 19 29.25Z" fill="#E50071" fill-opacity="0.5"/>
<path d="M9.59564 12.6057C10.3376 13.3672 11.5406 13.3672 12.2826 12.6057C13.0246 11.8441 13.0246 10.6095 12.2826 9.84795L10.9391 8.46909C10.1971 7.70757 8.99413 7.70757 8.25214 8.46909C7.51014 9.23061 7.51014 10.4653 8.25214 11.2268L9.59564 12.6057Z" fill="#E50071" fill-opacity="0.5"/>
<path d="M12.2825 29.1519L10.939 30.5308C10.197 31.2923 8.99396 31.2923 8.25196 30.5308C7.50996 29.7693 7.50996 28.5346 8.25196 27.7731L9.59546 26.3942C10.3375 25.6327 11.5405 25.6327 12.2825 26.3942C13.0245 27.1557 13.0245 28.3904 12.2825 29.1519Z" fill="#E50071" fill-opacity="0.5"/>
<path d="M7.60005 21.45C8.64939 21.45 9.50005 20.577 9.50005 19.5C9.50005 18.4231 8.64939 17.55 7.60005 17.55H5.70005C4.65071 17.55 3.80005 18.4231 3.80005 19.5C3.80005 20.577 4.65071 21.45 5.70005 21.45H7.60005Z" fill="#E50071" fill-opacity="0.5"/>
</svg>
