<svg width="160" height="40" viewBox="0 0 160 40" fill="none" xmlns="http://www.w3.org/2000/svg">
<g clip-path="url(#clip0_356_880)">
<path d="M12.087 29.1771C12.0504 29.4305 11.3296 29.2841 11.1494 29.4643C11.1128 29.4277 11.0058 29.3911 11.0058 29.3911C10.7524 29.3911 10.4286 29.4981 10.3217 29.6079C10.3949 29.6079 10.5751 29.6079 10.7186 29.5347C10.682 29.7149 9.06031 30.1119 9.0237 30.1119C8.40992 30.3287 5.74082 30.6891 4.65966 30.6891C4.69626 30.7623 5.56062 30.7623 5.59722 30.7623C5.67043 30.7623 5.74082 30.7257 5.81402 30.7257C6.318 30.7257 6.6812 30.6187 7.07537 30.6187C7.57935 30.5117 7.61595 30.4751 7.61595 30.4751C7.68634 30.4751 7.75954 30.5821 7.79614 30.5821C7.86934 30.5821 7.93973 30.4385 8.04954 30.4385C8.15934 30.4385 8.33953 30.3653 8.44652 30.3653L9.99787 30.0049C9.99787 30.0781 8.51973 30.4751 7.50896 30.6553C6.318 30.9087 5.70421 30.9453 4.76665 30.9453H4.62306C1.59356 30.8017 0.00561523 29.3207 0.00561523 28.493C0.0788186 27.4822 0.726387 26.7614 0.979783 26.1477C3.93889 19.2215 6.24761 13.4863 8.26633 5.98295C8.33953 5.51276 8.44652 5.18897 8.51973 4.79199C8.55633 4.25141 8.91671 4.1416 9.42069 4.1416C9.71069 4.1416 10.8622 4.68218 10.8622 4.93558V5.07917C10.8622 5.29596 11.186 5.69295 11.186 5.98013L11.1494 6.6643C10.102 13.2667 5.8112 23.4025 3.46588 28.5972C3.82627 28.5972 4.00646 28.7773 4.18665 28.7773C4.69063 28.7407 7.43294 28.2002 9.48826 27.913C10.8594 27.6962 11.904 27.4794 12.7712 27.4794H12.9513C13.2751 27.4794 13.5651 27.5526 14.0691 27.5526C14.1789 27.5526 14.3591 27.4794 14.4295 27.4794C14.7195 27.4794 14.9335 27.623 15.1137 27.8398L15.0067 27.9834C15.0799 28.127 15.3305 28.2002 15.4403 28.2002C15.2967 28.3438 15.2601 28.3804 15.1869 28.3804C15.0799 28.4873 14.7167 28.5606 14.7167 28.5606H14.5731C14.2493 28.5606 14.3563 28.6675 13.8523 28.6675C13.7453 28.6675 13.5623 28.6309 13.3483 28.6309C13.1344 28.6309 12.6613 28.7745 12.6276 28.9209C12.6276 28.9575 12.3742 29.0645 12.2672 29.0645C12.1602 29.0645 11.7632 29.0645 11.583 29.1377L11.9434 29.1743H12.087V29.1771ZM0.470175 27.7328C0.433573 27.7694 0.433573 27.806 0.433573 27.9496C0.470175 27.9496 0.577164 27.8426 0.613766 27.7694C0.720756 27.6258 0.830561 27.409 0.867162 27.2654C0.867162 27.2288 0.867162 27.1922 0.830561 27.1584C0.793959 27.1584 0.757357 27.195 0.757357 27.2316L0.470175 27.7356V27.7328ZM2.84928 24.5597C2.81268 24.5597 2.77608 24.5963 2.77608 24.6329V24.8863C2.88307 24.8863 2.95627 24.7793 2.95627 24.7427C2.95627 24.6695 2.95627 24.5625 2.84928 24.5625V24.5597ZM3.39268 25.1707C3.31947 25.3875 3.31947 25.5311 3.28287 25.6409C3.28287 25.6775 3.20967 25.7479 3.13928 25.7845C3.21248 25.7845 3.31947 25.7845 3.31947 25.928L3.39268 25.7479C3.39268 25.7113 3.39268 25.6409 3.46588 25.5677C3.39268 25.2439 3.39268 25.2073 3.39268 25.1707ZM4.69063 21.5274C4.54704 21.7442 4.43723 21.8878 4.36685 22.1046C4.36685 22.1412 4.36685 22.1778 4.40345 22.2116C4.58364 22.068 4.58364 21.8146 4.72723 21.6344C4.69063 21.5612 4.69063 21.5274 4.69063 21.5274ZM4.94403 23.1886C4.80043 23.6587 4.58364 24.1993 4.36685 24.5963C4.36685 24.6329 4.40345 24.7033 4.40345 24.7765C4.58364 24.6695 4.69344 24.3063 4.76383 24.1261C4.76383 24.1261 4.94403 23.2252 4.94403 23.1886ZM5.05101 19.976C5.05101 19.9394 5.26781 19.6523 5.23121 19.6157L4.72723 20.2998C4.72723 20.3364 4.80043 20.4068 4.83422 20.4434C4.90742 20.3702 5.05101 20.3364 5.05101 20.19V19.9732V19.976ZM5.4846 20.7334V20.877C5.4846 20.8404 5.55781 20.77 5.59159 20.7334C5.59159 20.6602 5.6282 20.6264 5.7014 20.5898L5.84499 20.3364C5.84499 20.2632 5.80839 20.2998 5.77179 20.2632C5.48179 20.6602 5.48179 20.6968 5.48179 20.7334H5.4846Z" fill="#253081"/>
<path d="M20.4913 17.3801C20.5279 17.6335 20.5645 17.9573 20.5645 18.2445C20.5645 20.6968 18.4359 24.9905 15.84 25.9647C15.5866 26.0716 15.4797 26.0716 15.3361 26.0716H14.9391C14.5421 26.0716 14.0353 25.928 13.6045 25.7479C12.8105 25.6747 12.5938 24.7371 12.5938 23.6925C12.5938 22.648 12.8471 21.4204 12.9541 20.9868C12.9541 20.9136 12.9907 20.8798 12.9907 20.8066C12.9907 20.77 13.1709 20.3364 13.1709 20.3027C14.2887 16.9128 16.3102 14.0269 18.6189 13.8467H19.0159C19.1257 13.8467 19.6663 13.9537 19.7367 14.0635C19.8437 14.0635 20.0267 14.1367 20.0267 14.1367C20.0267 14.2099 20.0267 14.3535 19.8465 14.4605C19.5593 14.6041 19.2327 14.8208 18.9089 15.1474C19.3791 15.3642 19.7733 15.6514 20.0267 16.0484C21.9384 16.0118 24.1402 15.6514 25.4381 15.4712C25.5451 15.4712 24.7511 16.5524 24.6807 16.589C24.1768 16.7692 23.5996 16.8762 22.9126 16.986C22.8394 16.986 22.769 17.0226 22.6958 17.0226C21.9018 17.1662 21.2177 17.3126 20.4941 17.383L20.4913 17.3801ZM18.5795 17.4505H18.2923C18.0024 17.4505 17.7152 17.3773 17.4984 17.2337L16.9578 18.4951C16.1272 20.5166 15.2966 22.572 15.0827 24.4105C15.0827 24.4471 15.2263 24.3739 15.2629 24.3739C15.2995 24.3739 15.3361 24.3007 15.3698 24.3007C16.741 23.0393 18.4359 20.007 18.5795 17.6279V17.4477V17.4505ZM18.5795 22.2144C18.5091 22.251 18.4359 22.2876 18.4359 22.3214C18.4359 22.3552 18.5091 22.358 18.5091 22.465C18.5457 22.4284 18.5795 22.3214 18.5795 22.2116V22.2144ZM19.1933 21.457L19.0835 21.7104C19.0469 21.8174 18.9033 22.144 18.7935 22.2144C18.7569 22.251 18.9737 22.1412 18.9737 22.1412C19.0469 21.961 19.1905 21.8174 19.2637 21.5274C19.2637 21.4908 19.2637 21.3838 19.3003 21.3472C19.2637 21.3472 19.2271 21.3838 19.1933 21.4542V21.457ZM19.0497 21.2402C19.0497 21.2402 19.0863 21.3134 19.1229 21.3472C18.9793 21.5274 18.9061 21.671 18.8695 21.8174C18.9061 21.8174 18.9793 21.7808 18.9793 21.7104C19.0525 21.6372 19.0863 21.4936 19.1595 21.457L19.1229 21.0234L19.0497 21.2402ZM19.8775 19.9761C19.8409 19.9761 19.8043 19.9761 19.8043 19.9029C19.8409 19.7959 19.9113 19.6861 19.9845 19.6129C19.7677 19.6861 19.6607 20.083 19.6607 20.297C19.5171 20.3702 19.4439 20.7672 19.4439 20.801C19.4805 20.801 19.6241 20.7278 19.6241 20.7278C19.6241 20.6912 19.6607 20.6208 19.6607 20.5476C19.6607 20.511 19.6973 20.404 19.6973 20.3674C19.8409 20.2942 19.8071 20.114 19.8775 19.9704V19.9761ZM19.9141 18.9315C19.9141 19.0751 19.8775 19.1849 19.8775 19.4017C19.9507 19.2947 19.9845 19.1849 20.0211 19.0779L19.9113 18.9343L19.9141 18.9315ZM19.9141 19.7255C19.9141 19.7621 19.9507 19.7987 19.9507 19.8325C20.0239 19.7959 20.0239 19.6889 20.0239 19.6889C19.9507 19.6889 19.9141 19.7255 19.9141 19.7255ZM20.2379 18.4979V18.8949C20.3111 18.7513 20.3449 18.6415 20.3449 18.5345C20.3449 18.4613 20.3083 18.4275 20.3083 18.3543L20.2351 18.4979H20.2379Z" fill="#253081"/>
<path d="M22.0425 25.0265C22.0791 24.8097 22.9069 24.1621 23.0899 24.0523C22.9097 24.2691 22.3691 24.7027 22.3691 24.8463C22.5127 24.6661 22.9829 24.2691 23.0195 24.2325C23.1265 24.2325 23.0561 24.1959 23.1265 24.1959C23.1265 24.1593 23.1997 24.0523 23.1997 24.0523C23.1997 24.0157 23.1997 23.9791 23.2363 23.9453L23.3433 23.8383C23.6333 23.5849 24.4977 22.974 24.7511 22.791L24.4611 22.1406C23.7037 20.5892 23.1265 19.0379 23.1265 17.4133C23.1265 14.7808 26.0124 12.7593 28.1775 12.7593C28.2507 12.7593 28.8279 12.9029 28.8279 12.9029L29.9457 13.3731C30.7397 13.3731 31.4238 14.9976 31.4238 15.5382C31.4238 16.1886 30.9536 16.8727 30.5932 17.1965H30.4497C30.4131 17.1965 30.2695 17.4865 29.9795 17.4865C29.6895 17.4865 29.6191 17.4499 29.5825 17.4499C29.5093 17.4499 29.1855 17.3429 29.1489 17.3429C28.9687 17.2697 28.7519 17.1627 28.7519 17.0529C28.7519 16.8727 29.2559 15.5748 29.2559 14.8878C29.2193 14.6344 29.1461 14.6344 29.0757 14.6344H28.9321C27.5609 14.6344 25.8294 15.6452 25.8294 17.2669C25.8294 18.4579 26.8402 20.4766 27.2372 21.3072C29.0419 20.1894 32.108 18.6015 33.2258 17.5907C33.2258 17.7709 32.505 18.3847 32.3248 18.4213C32.6148 18.4213 32.505 18.3481 33.0822 17.9877C32.8654 18.2777 32.612 18.4213 32.612 18.4579L32.3952 18.6747C32.2854 18.7817 32.9358 18.2777 32.9724 18.2777C33.009 18.2777 33.1159 18.2411 33.1525 18.2777C32.8288 18.4213 32.9724 18.5311 32.5754 18.8549C32.8991 18.8549 33.1525 18.6381 33.2258 18.5311C33.1891 18.7845 32.8654 19.0351 32.5416 19.2519C32.5416 19.3588 32.5416 19.5052 32.6852 19.432C32.6852 19.6122 31.8546 20.1162 31.207 20.5132L27.7439 22.6417C27.8875 23.0387 27.9607 23.2921 28.0339 23.9397C28.0705 24.1199 28.0705 24.2635 28.0705 24.4437C28.0705 26.9326 25.5084 28.5571 23.5601 28.5571L23.0899 28.4839C22.1157 28.4107 21.2852 27.4028 21.2852 26.6792C21.2852 26.209 21.3584 26.0288 21.6089 25.6684C21.7159 25.4882 22.0425 25.1982 22.0425 25.018V25.0265ZM23.1237 26.9382C24.2414 26.865 25.576 25.567 25.1452 24.3761C24.2077 25.0265 22.8365 26.2878 22.8365 26.6116C22.8365 26.6848 22.5465 26.7552 22.5831 26.8284C22.7267 26.9354 22.9435 26.9354 23.1237 26.9354V26.9382ZM25.0354 17.8469C24.9988 17.9201 24.9284 17.9539 24.9284 18.0271C24.9284 18.0637 25.0016 18.1003 25.0354 18.1341V17.8441V17.8469ZM26.4066 21.096C26.4066 21.1692 26.4432 21.3128 26.4798 21.4564L26.66 21.6366L26.4066 21.096ZM26.6966 26.3976C26.66 26.4708 26.6234 26.5412 26.6234 26.5778C26.6234 26.5778 26.66 26.6144 26.6966 26.7214V26.3976ZM27.0936 21.3466C26.9838 21.203 26.8036 20.8426 26.6966 20.6258C26.7698 20.8792 26.8768 21.31 26.9866 21.4198L27.0964 21.3466H27.0936ZM26.8036 24.9899C26.8036 25.0265 26.9106 25.0969 26.9472 25.0969C26.9838 25.0603 27.0204 24.8801 27.0204 24.8435L26.8036 24.9871V24.9899ZM27.057 25.9274C26.9838 26.0344 26.8768 26.2512 26.8768 26.3976C26.9838 26.2174 26.9838 26.1442 26.9838 26.1076L27.057 25.9274ZM27.2738 26.5778C27.3104 26.5778 27.347 26.5412 27.3836 26.4342C27.4568 26.361 27.4568 26.2174 27.4568 26.1808C27.3836 26.3244 27.24 26.5778 27.2766 26.5778H27.2738ZM27.5243 22.791C27.7777 23.5483 27.8143 24.1621 27.8143 24.9561C27.7777 25.2799 27.7073 25.6065 27.5975 25.8233L27.5609 26.0035C27.7411 25.6797 27.9213 25.0659 27.9213 24.4155C27.9213 23.9819 27.8481 23.3343 27.6313 22.7206L27.5215 22.7938L27.5243 22.791Z" fill="#253081"/>
<path d="M40.442 10.8506C39.648 10.8506 38.854 10.8872 38.06 10.9576C37.5898 12.4357 37.0127 14.0237 36.4721 15.3582L36.4355 15.2146L37.3731 12.6159C37.2632 12.7595 36.4355 14.7078 35.6415 17.0532C35.6049 17.1264 35.5317 17.27 35.5317 17.5233L35.4247 17.8471C35.4247 17.8837 35.3881 17.9203 35.3881 17.9907L35.2811 18.1343C35.2079 18.2075 35.1713 18.3511 35.1713 18.4581V18.6017L34.8475 19.7927C34.5238 21.0202 33.9804 23.2557 33.9804 24.4467V24.8437L34.1239 23.6161C34.2675 22.642 34.5209 21.451 34.8109 20.2966C34.8475 20.26 34.8475 20.2234 34.8475 20.1896C34.8841 20.153 34.8841 20.1164 34.8841 20.0827L34.9573 19.8659C35.2811 18.5313 35.6443 17.4135 35.8245 17.0166C35.8611 16.7998 35.9681 16.4028 36.1145 16.186L36.2215 16.0424V15.7186C36.2947 15.7186 36.4017 15.6116 36.4383 15.6116C35.2839 18.8213 34.2394 22.1408 34.1662 25.1703C34.1662 25.3505 34.2028 25.4941 34.3464 25.4941C34.383 25.4941 34.4562 25.4941 34.5266 25.4575C36.1145 24.5931 39.4678 20.2262 41.1655 18.0245L41.5625 17.5205C41.6723 17.4135 41.7061 17.2671 41.7793 17.1968C41.8159 17.1601 41.8525 17.0898 41.9595 17.0898L41.8159 17.3798C41.8525 17.3798 41.9961 17.3432 42.1059 17.163C42.1059 17.1996 42.0693 17.2362 42.0693 17.3066C42.0327 17.4501 41.9595 17.6303 41.8891 17.7767L42.1791 17.4164C42.2157 17.3798 42.1791 17.5233 42.1791 17.5599C42.1059 17.7035 42.0355 17.8471 41.9257 17.9935L42.2495 17.6698V18.0301C42.2129 18.1033 42.2129 18.2103 42.0693 18.2469L42.0327 18.5369C41.9961 18.7903 41.6357 19.2577 41.5287 19.4745L39.6536 22.1436C39.3298 22.6138 37.4547 24.9563 36.9113 25.2097C36.7311 25.5335 36.5509 25.6433 36.2975 25.8601C36.2975 25.9671 36.1905 25.9671 36.1905 25.9671C35.9371 26.1839 35.65 26.3275 35.3966 26.5077C35.1432 26.6146 35.1066 26.7244 34.8194 26.7977C34.6758 26.8343 34.4956 26.9778 34.2422 26.9778C34.0986 26.9778 33.665 26.9046 33.558 26.7977C33.4848 26.7977 33.161 26.7244 33.1244 26.6907C33.0146 26.6907 32.2939 26.2571 32.1503 26.1501C32.1137 26.1135 32.0405 26.0769 32.0405 26.0431C31.8969 25.9699 31.8969 25.8263 31.8237 25.7897L31.6801 25.4659C31.6435 25.4293 31.6435 25.3589 31.6435 25.3223C31.6069 25.1055 31.5703 25.0323 31.5703 24.7817V24.5649C31.5703 24.458 31.4971 24.3482 31.4971 24.2412C31.4971 24.2046 31.4971 24.168 31.5337 24.1342C31.5337 24.1342 31.4971 24.0272 31.4971 23.9906C31.4971 23.9906 31.5337 23.8104 31.5703 23.7738V23.5936C31.5703 23.5204 31.5703 23.45 31.6069 23.3768C31.5337 23.3036 31.4999 23.2698 31.4999 23.2332C31.5365 23.053 31.6069 22.9432 31.6069 22.8362L31.6435 22.366C31.6435 22.3294 31.6069 22.2928 31.6069 22.259C31.6069 22.259 31.6069 22.2224 31.6435 22.1155C31.6435 21.8621 31.7167 21.5017 31.8237 21.2849C31.8603 21.2117 31.8603 21.1779 31.8969 20.9611C31.8969 20.7809 31.9335 20.6711 31.9701 20.5641C32.0433 20.4571 32.0799 20.2403 32.0799 20.0601V19.8799C32.1165 19.6997 32.2601 19.4829 32.2967 19.3028C32.9442 16.6702 33.9916 13.9279 35.0756 11.2954C33.4173 11.5122 31.8997 11.7656 30.7819 11.836H30.0978C29.3404 11.836 28.1128 11.6924 27.8256 10.8252C27.789 10.7183 27.7524 10.5718 27.7524 10.3551C27.7524 10.2481 27.789 10.1383 27.8594 10.0313C27.8594 9.95807 28.0396 9.92428 28.1128 9.92428C28.1128 9.92428 28.1128 9.96088 28.2226 9.99748C28.4028 10.0341 28.7266 10.0707 29.1602 10.0707C30.2076 10.0707 31.8293 9.9637 32.8767 9.85389C34.0676 9.7103 35.0052 9.6371 35.7992 9.56671L36.9535 6.53722L37.2069 5.99664C37.2801 5.92343 37.3505 5.88965 37.4237 5.88965C37.5335 5.88965 37.9277 6.10644 38.0741 6.10644C38.6513 6.10644 38.7245 6.57663 38.7583 7.08061C38.7949 7.2242 38.9751 7.40439 38.9751 7.441V7.62119C38.9019 8.16177 38.7949 8.77555 38.6147 9.13594L38.5415 9.42593H40.1294C41.8244 9.46253 43.0885 9.89612 43.4123 10.2565C43.3757 10.4733 43.1955 10.4001 43.1955 10.4733C43.1955 10.5099 43.1955 10.6535 43.2687 10.6901C43.2321 10.7267 42.8351 10.8337 42.7648 10.9773C42.6212 10.9773 42.4044 10.9407 41.647 10.9041C41.25 10.8675 40.8896 10.8675 40.456 10.8675L40.442 10.8506ZM35.8949 25.9277C35.8949 25.8911 34.8841 26.685 34.4534 26.7948C34.7771 26.7948 35.8611 26.1078 35.8949 25.9277ZM39.5016 22.0338C39.5382 21.9972 39.3214 22.2506 39.3214 22.3238C39.2848 22.4308 39.2144 22.5772 38.9976 22.5772C38.961 22.5772 38.9244 22.6138 38.8878 22.6504L38.7442 22.9404C38.7076 22.977 38.671 23.084 38.6372 23.084C38.6034 23.084 38.6372 23.191 38.564 23.191L38.4204 23.298C38.3838 23.405 38.3472 23.4782 38.2402 23.5514L38.0966 23.7316C38.0234 23.8048 37.8432 23.985 37.8066 24.0919C37.8432 24.0919 38.1304 23.8019 38.1304 23.7682L38.4204 23.481C38.457 23.3374 38.6372 23.2642 38.7104 23.1572C38.7104 23.1572 38.747 23.084 38.747 23.0502C38.747 22.977 38.8568 22.8334 38.8906 22.7968C39.0342 22.7968 39.1074 22.7236 39.1806 22.6166C39.2538 22.5434 39.2904 22.4364 39.3974 22.3632L39.6874 22.0028L39.9774 21.5326C39.9042 21.5326 39.8338 21.6058 39.8338 21.6396C39.7972 21.7466 39.8338 21.7832 39.6536 21.8564C39.6536 21.893 39.51 21.9634 39.4002 22.0732L39.5072 22.0366L39.5016 22.0338ZM40.4054 20.336C40.6222 20.2628 40.8755 19.9391 40.8755 19.9025C40.9121 19.8293 40.9488 19.6857 40.9122 19.7223L40.4082 20.336H40.4054ZM42.4607 10.5972H42.6043C42.6409 10.5972 42.5677 10.4902 42.5311 10.4902C42.4945 10.5634 42.4579 10.5972 42.4579 10.5972H42.4607Z" fill="#253081"/>
<path d="M50.6878 25.1709L50.8314 25.4947L51.1214 25.7481L51.5184 26.5786C51.5916 26.7588 51.5184 26.9024 51.6282 27.0826C51.7014 27.1558 51.7718 27.2994 51.7718 27.4064V27.6598C51.8084 27.84 51.8787 28.0202 51.8787 28.2004C51.9153 28.3806 51.9153 28.5974 51.9153 28.8142L52.0223 29.4983V30.0023C52.0223 30.0755 51.9857 30.1459 51.9857 30.2557L51.9491 30.9765C51.7689 33.5724 50.9018 35.9543 50.3246 37.0721C50.3246 37.0721 50.288 37.1453 50.2514 37.1819C50.2514 37.2889 50.1444 37.3987 50.1444 37.5423L50.0008 37.6492C49.8572 37.7928 49.7108 38.2264 49.5672 38.4432L48.883 39.3076C48.8098 39.4174 48.7394 39.4878 48.5592 39.4878L47.9089 39.8482C47.7287 39.9551 47.6189 39.9917 47.4387 39.9917H47.2585C46.9347 39.9917 46.6447 39.9185 46.3209 39.8819C46.1041 39.8453 45.2735 39.4484 45.023 39.3414C44.733 39.1612 44.1586 38.8374 43.9052 38.4404L43.4716 37.5028C43.3984 37.3592 43.4716 37.1791 43.328 37.1058V36.9623C43.328 36.8891 43.2914 36.8187 43.2914 36.7455C43.2182 36.5653 43.1844 36.2753 43.038 36.0951C43.0014 36.0951 43.0014 36.0219 43.0014 35.9881V35.6981C43.0014 35.6615 43.0014 35.6249 43.038 35.5545L43.0014 35.1941C43.0014 35.0871 42.9282 34.9773 42.9282 34.8703C42.9282 34.7971 42.9648 34.7605 42.9648 34.7267V34.2565C42.9648 33.7864 42.9648 33.3556 43.038 32.9586V31.8042C43.038 31.624 43.1112 31.3706 43.1112 31.1539C43.1844 30.6837 43.2548 30.1797 43.2914 29.6757C43.3646 29.0253 43.435 28.4144 43.5814 27.8006C43.8714 26.1056 44.1952 24.6979 44.4824 23.5069C44.4458 23.4337 44.4458 23.3633 44.4458 23.2901C44.4458 23.0367 44.5556 22.8931 44.6992 22.7495L45.1328 21.125C45.7803 18.6361 46.0703 17.5521 46.3941 16.5442L47.4753 13.3683C48.1594 11.2763 49.0998 9.1844 50.074 7.23607C50.364 6.5153 52.0223 3.62939 52.8529 3.62939C52.9965 3.62939 54.4409 4.53036 54.5478 4.64016C54.7646 4.78375 55.018 4.89356 55.232 5.11035C55.4854 5.32715 55.629 5.68753 55.629 6.04792V6.19151C55.629 6.80529 55.4854 7.38247 55.339 7.92305C55.2292 8.50023 55.049 9.04081 54.9054 9.61799C54.7956 10.0516 54.6154 10.519 54.4718 10.9525L52.9937 14.7394C52.6333 15.3532 52.3461 16.0008 51.9463 16.6877C51.3325 18.0955 50.4316 19.4667 49.601 20.7646L48.807 22.026C51.1889 21.3052 54.0382 19.5736 56.24 17.3719C56.2766 17.3353 56.0964 17.6957 56.0964 17.8759C56.0964 17.9125 56.133 17.9829 56.133 17.9829V18.2363C56.1696 18.2363 55.9894 18.4897 55.9894 18.4897V18.7431C55.9894 18.8867 55.9894 19.0303 55.9528 19.0669L55.7726 19.3569C54.1846 21.1616 51.6591 22.7833 49.2068 23.6139C49.7474 23.9743 50.074 24.3009 50.3978 24.5881C50.3612 24.6247 50.3246 24.6951 50.3246 24.7317C50.3246 24.8049 50.4344 24.8753 50.5048 24.8753C50.7582 24.9822 50.9384 25.2722 51.0819 25.596L50.7919 25.2356C50.7553 25.199 50.7187 25.1624 50.6821 25.1624L50.6878 25.1709ZM46.0337 36.7511C46.0703 36.8243 46.0703 36.9313 46.0703 37.0045C46.1435 37.4381 46.1801 37.8717 46.4307 38.2658C46.5039 38.446 46.6841 38.5896 46.8643 38.6262C47.0811 38.6262 47.2979 38.553 47.4415 38.3728C47.6949 38.156 47.8751 37.8689 48.1257 37.5789C48.3425 37.2889 48.4157 37.0383 48.5959 36.7483C48.7394 36.5315 48.7394 36.3513 48.8858 36.1711C48.9591 35.9543 49.066 35.8107 49.1392 35.6671L49.3926 34.983C49.5728 34.5494 49.8628 33.3246 49.9698 32.8544C50.0768 32.6376 50.0768 32.3842 50.1134 32.1703C50.1134 32.0604 50.1838 31.9169 50.2204 31.7733C50.2204 31.7001 50.257 31.6297 50.257 31.5565V31.4129C50.257 31.3059 50.257 31.1229 50.3668 30.7625V30.6189C50.3668 30.4387 50.4034 30.2219 50.4034 30.0051L50.3302 28.8874C50.2936 28.4904 50.257 28.13 50.15 27.8062C50.0768 27.3726 50.0064 26.9756 49.7896 26.6518C49.6826 26.4717 49.5362 26.2915 49.4658 26.1113C49.3223 25.6777 48.9619 25.4975 48.6719 25.1371C48.5987 25.0639 47.5175 24.5599 47.5175 24.5599C47.4443 24.5965 47.4077 24.5965 47.4077 24.7035C47.0839 26.2915 46.6137 27.6992 46.1098 32.2069C46.0366 33.0008 45.9662 33.7948 45.9662 34.5522V35.7797C45.9662 36.1035 46.0028 36.4301 46.0394 36.7539L46.0337 36.7511ZM45.9971 18.7515C46.0337 18.7881 46.1773 18.5347 46.1773 18.5347C46.1773 18.5347 46.2505 18.5347 46.2505 18.3179C46.2871 18.3179 46.1773 18.2109 46.1773 18.2447C46.1773 18.3179 46.0337 18.6783 45.9971 18.7487V18.7515ZM47.8019 18.5713L47.7287 19.0049C47.7287 19.0415 47.8723 18.8613 47.8723 18.8613C47.9089 18.8613 47.9455 18.6445 47.9455 18.6079C47.8723 18.6079 47.8019 18.5713 47.8019 18.5713ZM48.593 18.3545L48.7028 18.1377C48.7028 18.0645 48.776 17.9941 48.776 17.9575C48.776 17.9575 48.5592 17.9941 48.5592 18.0307C48.5592 18.1743 48.5959 18.2475 48.5959 18.3545H48.593ZM48.9196 15.6488V15.432C48.8098 15.432 48.7394 15.432 48.7394 15.5756C48.7394 15.5756 48.8126 15.6122 48.9196 15.6488ZM49.173 16.73C49.1364 16.6568 48.9562 17.127 48.9562 17.1636C48.9196 17.2002 48.9196 17.2706 48.9196 17.3072L49.0266 17.127C49.0998 17.02 49.0998 16.9102 49.1702 16.73H49.173ZM52.9599 7.96529L52.4193 8.90285C52.4193 8.93945 52.3827 8.97605 52.3827 9.04644C52.3461 9.08304 52.3461 9.15343 52.3461 9.19003L51.4423 11.1018C51.1889 11.572 51.0087 12.1125 50.7948 12.6531C50.7582 12.7967 50.685 12.9431 50.578 13.0501C50.578 13.1937 50.4682 13.3035 50.4682 13.5203C50.5048 13.5569 50.5048 13.5935 50.5048 13.6273L50.395 13.8075C50.395 14.0975 50.1078 14.3115 50.0346 14.6381C50.0346 14.8182 49.9248 14.8914 49.9248 14.9618C49.9248 14.9984 49.8882 14.9984 49.601 15.936L49.4208 16.44C49.3476 16.547 49.3138 16.7638 49.3138 16.9102L49.1336 17.3072C49.097 17.5606 48.9534 17.9575 48.9534 17.9575C49.494 17.2002 50.1078 15.9022 50.5048 15.1082L51.5155 13.0163C51.8393 12.2955 52.1659 11.572 52.4531 10.7808C52.8501 9.80663 53.1373 8.86906 53.5005 7.8949L53.6807 7.03053C53.3935 7.03053 53.2471 7.46412 53.1401 7.64432C53.0331 7.75131 53.0331 7.89771 52.9599 7.9681V7.96529ZM48.9928 20.4099C49.2096 20.3029 49.3898 19.8693 49.3898 19.7961C49.4264 19.7961 49.4264 19.7595 49.4968 19.6525C49.2434 19.7595 49.0632 19.9763 48.9928 20.4099ZM49.8206 18.6051C49.9642 18.4615 50.2542 18.0279 50.2176 18.0279C50.181 18.0645 50.1444 17.9547 50.1444 17.9547C49.9642 18.1349 49.8206 18.3517 49.8206 18.6051ZM50.181 36.5709C50.2542 36.4273 50.3612 36.2809 50.3612 36.2105C50.3612 36.2105 50.181 36.3541 50.1444 36.4639C50.1444 36.5371 50.181 36.5371 50.181 36.5737V36.5709ZM51.5155 27.733C51.5155 27.6598 51.4423 27.3726 51.4085 27.336C51.4085 27.229 51.3719 27.1558 51.3353 27.1192C51.3353 27.1924 51.3719 27.2994 51.4085 27.3726C51.4085 27.4092 51.4452 27.4458 51.4452 27.4796C51.4085 27.5162 51.3719 27.5866 51.3719 27.6232C51.3719 27.7302 51.4452 27.8766 51.5521 27.8766L51.5155 27.733ZM51.4818 29.9347V29.321C51.4452 29.2844 51.4452 29.1408 51.4452 29.1408C51.4085 29.1408 51.3719 29.2844 51.3719 29.321L51.4085 29.9347C51.3719 30.0079 51.3719 30.0417 51.3719 30.0783C51.3719 30.1149 51.3719 30.1853 51.4452 30.2219C51.4452 30.2219 51.4085 30.1487 51.4085 30.1149C51.4085 30.0417 51.4452 30.0079 51.4818 29.9347ZM51.5155 28.6706C51.5155 28.7072 51.5887 28.7072 51.6253 28.7072L51.5887 28.4538C51.5887 28.3806 51.6253 28.3102 51.6619 28.237C51.6619 28.2004 51.6253 28.1638 51.6253 28.13C51.5521 28.1666 51.5155 28.3834 51.5155 28.4538V28.6706ZM51.6957 31.3763L51.7689 31.0863C51.7323 31.0497 51.6591 31.2299 51.6591 31.2665C51.6591 31.3031 51.6957 31.3397 51.6957 31.3735C51.6591 31.4101 51.5859 31.4467 51.5859 31.4467C51.5859 31.4467 51.6225 31.5903 51.6225 31.7001C51.6957 31.6269 51.6591 31.4833 51.6957 31.3763ZM55.3756 19.3625C55.5192 19.2893 55.629 19.1823 55.629 19.0725C55.629 19.0359 55.5924 18.8923 55.5924 18.8923C55.5558 18.8923 55.4854 19.2893 55.3756 19.3625Z" fill="#253081"/>
<path d="M61.8344 17.3801C61.871 17.6335 61.9076 17.9573 61.9076 18.2445C61.9076 20.6968 59.7791 24.9905 57.1804 25.9647C56.927 26.0716 56.82 26.0716 56.6764 26.0716H56.2794C55.8824 26.0716 55.3784 25.928 54.9449 25.7479C54.1509 25.6747 53.9341 24.7371 53.9341 23.6925C53.9341 22.648 54.1875 21.4204 54.2945 20.9868C54.2945 20.9136 54.3311 20.8798 54.3311 20.8066C54.3311 20.77 54.5113 20.3364 54.5113 20.3027C55.629 16.9128 57.6506 14.0269 59.9593 13.8467H60.3563C60.4633 13.8467 61.0066 13.9537 61.077 14.0635C61.1868 14.0635 61.367 14.1367 61.367 14.1367C61.367 14.2099 61.367 14.3535 61.1868 14.4605C60.8968 14.6041 60.5731 14.8208 60.2493 15.1474C60.7195 15.3642 61.1165 15.6514 61.367 16.0484C63.2788 16.0118 65.4805 15.6514 66.7785 15.4712C66.8854 15.4712 66.0943 16.5524 66.0211 16.589C65.5171 16.7692 64.9399 16.8762 64.2529 16.986C64.1797 16.986 64.1093 17.0226 64.0361 17.0226C63.2422 17.1662 62.558 17.3126 61.8372 17.383L61.8344 17.3801ZM59.9227 17.4505H59.6327C59.3427 17.4505 59.0555 17.3773 58.8387 17.2337L58.2981 18.4951C57.4676 20.5166 56.6398 22.572 56.423 24.4105C56.423 24.4471 56.5666 24.3739 56.6032 24.3739C56.6398 24.3739 56.6764 24.3007 56.713 24.3007C58.0841 23.0393 59.7791 20.007 59.9227 17.6279V17.4477V17.4505ZM59.9227 22.2144C59.8495 22.251 59.7791 22.2876 59.7791 22.3214C59.7791 22.3552 59.8523 22.358 59.8523 22.465C59.8889 22.4284 59.9255 22.3214 59.9255 22.2116L59.9227 22.2144ZM60.5365 21.457L60.4295 21.7104C60.3929 21.8174 60.2493 22.144 60.1395 22.2144C60.1029 22.251 60.3197 22.1412 60.3197 22.1412C60.3929 21.961 60.5365 21.8174 60.6097 21.5274C60.6097 21.4908 60.6097 21.3838 60.6463 21.3472C60.6097 21.3472 60.5731 21.3838 60.5365 21.4542V21.457ZM60.3901 21.2402C60.3901 21.2402 60.4267 21.3134 60.4633 21.3472C60.3197 21.5274 60.2465 21.671 60.2099 21.8174C60.2465 21.8174 60.3169 21.7808 60.3169 21.7104C60.3901 21.6372 60.4267 21.4936 60.497 21.457L60.4604 21.0234L60.3872 21.2402H60.3901ZM61.2206 19.9761C61.184 19.9761 61.1474 19.9761 61.1474 19.9029C61.184 19.7959 61.2572 19.6861 61.3276 19.6129C61.1108 19.6861 61.0038 20.083 61.0038 20.297C60.8602 20.3702 60.787 20.7672 60.787 20.801C60.8236 20.801 60.9672 20.7278 60.9672 20.7278C60.9672 20.6912 61.0038 20.6208 61.0038 20.5476C61.0038 20.511 61.0404 20.404 61.0404 20.3674C61.184 20.2942 61.1474 20.114 61.2206 19.9704V19.9761ZM61.2572 18.9315C61.2572 19.0751 61.2206 19.1849 61.2206 19.4017C61.2938 19.2947 61.3304 19.1849 61.3642 19.0779L61.2572 18.9343V18.9315ZM61.2572 19.7255C61.2572 19.7621 61.2938 19.7987 61.2938 19.8325C61.367 19.7959 61.367 19.6889 61.367 19.6889C61.2938 19.6889 61.26 19.7255 61.26 19.7255H61.2572ZM61.581 18.4979V18.8949C61.6542 18.7513 61.6908 18.6415 61.6908 18.5345C61.6908 18.4613 61.6542 18.4275 61.6542 18.3543L61.581 18.4979Z" fill="#253081"/>
<path d="M62.7718 26.6886C62.6648 26.6886 62.6648 26.3648 62.6648 26.2916C62.6648 26.2184 62.6648 26.1846 62.7014 26.148C62.7014 26.041 62.7014 25.9678 62.7746 25.751V25.1006C62.8112 24.9936 62.8478 24.957 62.9182 24.9204L62.9548 24.4164C63.5686 21.2405 64.4329 18.9684 65.2269 15.6855C65.2635 15.5053 65.3705 15.2153 65.3705 14.9282C65.3705 14.8212 65.5507 14.6748 65.5507 14.6382C65.6605 14.4946 65.8041 14.4214 66.0209 14.3848C66.0941 14.3848 66.7417 14.6382 67.0683 14.6748C67.2485 14.6748 67.5722 14.855 67.6088 15.0718C67.8256 15.2885 67.8622 15.5053 67.8622 15.7925V16.2261C67.8622 16.7667 67.8256 16.7667 67.7552 17.3439C68.6562 16.1529 70.6777 14.7452 71.7955 14.7452C72.0855 14.7452 72.3361 14.9253 72.4459 15.1421C72.4459 15.1787 72.4825 15.2491 72.4825 15.2857C72.4825 15.3589 72.4459 15.3589 72.3755 15.3589C72.1953 15.4321 71.9785 15.4659 71.1142 15.9361C70.9706 15.9361 70.8974 16.0093 70.8974 16.0797L70.6074 16.3331C70.5004 16.3331 70.354 16.4401 70.354 16.5499L69.5234 17.4509C69.4136 17.5945 69.2334 17.7043 69.1996 17.7746C68.9828 17.9548 68.9096 18.135 68.7294 18.3152C68.7294 18.3152 68.7294 18.3884 68.6224 18.3884C68.5858 18.4954 68.4788 18.6052 68.4788 18.7122C68.369 18.7854 68.2986 18.9656 68.2986 19.036C68.2254 19.1092 68.155 19.1092 68.155 19.1796C68.155 19.1796 68.155 19.2162 68.1184 19.3232L68.0086 19.3964C68.0086 19.4696 67.9354 19.5034 67.9354 19.5766C67.972 19.6132 67.7552 19.6498 67.7552 19.6836C67.7552 19.7568 67.7186 19.8272 67.7186 19.9004C67.6117 19.9736 67.5384 20.2241 67.5384 20.2973C67.3949 20.4775 67.2484 20.5873 67.0345 20.9843C67.0345 20.9477 66.9613 20.8773 66.9613 20.9111C66.9613 20.9843 66.9613 21.0181 66.9979 21.0181C66.9979 21.1251 66.9613 21.1251 66.8881 21.1251C66.8881 21.1983 66.8515 21.2687 66.8515 21.3053V21.4489C66.8149 21.6291 66.7783 21.4855 66.7783 21.6657C66.6685 21.6657 66.6685 21.7389 66.5981 21.8459C66.5981 21.7389 66.5981 21.7023 66.6347 21.7023C66.6347 21.6291 66.6713 21.5587 66.6713 21.5587C66.6713 21.5953 66.5981 21.4855 66.5643 21.4855C66.5643 21.4855 66.5277 21.5221 66.6009 21.3785C66.6009 21.3053 66.6375 21.2349 66.6375 21.1983C66.7107 21.1251 66.7107 21.0913 66.7107 21.0181C66.6009 21.0181 66.4573 21.4151 66.4207 21.4517C66.4207 21.4517 66.3475 21.6685 66.3475 21.7417C66.2743 21.7417 66.2743 21.8487 66.2743 21.9219C66.2377 22.0289 66.0941 22.3555 66.0941 22.4259C66.0941 22.4625 66.2011 22.1021 66.3475 22.0289C66.3841 21.8487 66.4207 21.7389 66.4573 21.7389C66.4573 21.6657 66.4573 21.5587 66.5277 21.5587C66.5277 21.5587 66.4911 21.8825 66.4573 22.0289L66.6009 21.9219C66.5643 22.0655 66.4939 22.1021 66.4207 22.1387V22.3189C66.4207 22.3189 66.4207 22.4259 66.3137 22.4259C66.2771 22.6061 66.2405 22.6793 66.2039 22.6793C66.1673 22.6793 66.1673 22.5357 66.1673 22.5357C65.9871 22.6089 65.9139 22.7525 65.9139 22.9327L65.8773 23.1495C65.9843 22.9327 65.9843 22.8257 65.9843 22.7525C66.0941 22.7525 66.0941 22.7891 66.0941 22.8257C66.0941 22.8257 66.0941 22.9327 65.9843 23.0425C65.9843 23.0791 65.9477 23.1157 65.9477 23.1495C65.9477 23.1832 65.9843 23.2227 66.0209 23.2227C66.0209 23.2227 65.9843 23.3297 65.9477 23.2959L65.6943 23.7295C65.6943 23.8364 65.6943 23.9462 65.6211 24.0195V24.2728C65.5141 24.3798 65.5141 24.4896 65.4775 24.5966C65.4775 24.5966 65.4409 25.1372 65.3339 25.1372L65.2607 25.4976C65.2607 25.5708 65.1171 26.0382 65.1509 26.0382C65.1509 26.0382 65.2241 25.7848 65.2607 25.751C65.3339 25.751 65.4043 25.3174 65.4043 25.2808C65.4043 25.2808 65.5141 24.9204 65.5141 24.8472C65.5507 24.7402 65.6211 24.5234 65.6577 24.4136C65.6577 24.3066 65.7309 24.1968 65.7309 24.1236C65.7309 24.0166 65.8379 23.9434 65.8379 23.8702C65.8379 23.7632 65.9477 23.6534 65.9815 23.5802C65.9815 23.4732 66.0181 23.4 66.0547 23.2931C66.0547 23.2198 66.1645 23.1129 66.1983 23.0763L66.1617 23.3297C66.1617 23.4732 66.0519 23.6168 66.0519 23.6534C66.0153 23.69 65.9449 23.9068 65.9449 23.9434C65.9815 23.98 65.9815 24.0166 65.9815 24.0504C65.9815 24.1236 65.9449 24.1574 65.9449 24.194L65.8351 24.1208C65.8351 24.2278 65.7619 24.2644 65.7281 24.301C65.8013 24.3742 65.8013 24.408 65.8013 24.4812C65.8013 24.5178 65.9449 24.2278 66.0547 24.1208C66.0547 24.194 66.0547 24.301 65.9477 24.4108C65.9111 24.5178 65.9111 24.591 65.9111 24.591C65.8041 24.6642 65.8041 24.698 65.8041 24.7346C65.8041 24.7712 65.8041 24.8416 65.7675 24.8782L65.5507 25.3484V25.6722C65.6239 25.6356 65.6239 25.599 65.6239 25.5652C65.5873 25.5286 65.5873 25.492 65.5873 25.4582C65.5873 25.385 65.6239 25.3146 65.6239 25.278C65.6605 25.278 65.6971 25.278 65.7337 25.2414C65.7337 25.278 65.7703 25.385 65.7703 25.4582C65.7703 25.5314 65.7337 25.5652 65.7337 25.5652C65.7337 25.5652 65.7337 25.6722 65.8407 25.6722C65.8407 25.5652 65.8407 25.4554 65.9505 25.4554C65.9505 25.5624 65.8407 25.6722 65.8407 25.7454L65.8041 26.0325C65.7309 26.0691 65.5507 26.5027 65.5507 26.5731C65.5141 26.4999 65.4775 26.4661 65.4775 26.4295L65.3705 26.5731V26.3197C65.3339 26.3197 65.2973 26.3929 65.2635 26.3929C65.2635 26.3929 65.2635 26.2493 65.3001 26.2127C65.3001 26.2127 65.3001 26.1395 65.3733 26.1395C65.3733 26.1395 65.4099 25.9959 65.4465 25.9227C65.5197 25.8861 65.5535 25.8861 65.5535 25.8495C65.5535 25.7425 65.1931 26.1733 65.1931 26.2099C65.1931 26.3169 65.1931 26.3901 65.0833 26.4633C65.0833 26.5703 65.0833 26.6801 64.9763 26.7871C65.0129 26.7505 64.8665 27.0039 64.7595 27.0405C64.7229 27.0771 64.6497 27.1475 64.5793 27.1475H64.3625C64.2893 27.0405 64.1824 27.0405 64.1092 26.9673C64.1092 26.9673 63.8924 26.9673 63.8192 26.8941C63.6756 26.8941 62.7718 26.8209 62.7718 26.6773V26.6886ZM64.1795 25.8214C64.1429 25.8214 64.0726 25.858 64.0726 25.965C63.9993 25.965 63.9627 26.072 63.9627 26.1086C63.9627 26.1452 63.9993 26.1818 64.0359 26.2156C64.0359 26.3225 64.0359 26.3957 63.9627 26.3957C63.9993 26.4323 64.0359 26.5759 64.0359 26.5759C64.0726 26.5759 64.1458 26.3957 64.1458 26.3225C64.1458 26.179 64.1824 26.1423 64.2161 26.0691C64.1795 26.1423 64.1458 26.1057 64.0726 26.1424C64.0726 25.9988 64.1092 25.9988 64.2161 25.9256C64.2161 25.8524 64.2161 25.8186 64.1795 25.8186V25.8214ZM64.5765 25.461C64.4695 25.461 64.3963 25.461 64.3963 25.6412C64.3963 25.6046 64.4329 25.568 64.4695 25.568C64.5765 25.568 64.5765 25.4948 64.5765 25.461ZM64.6469 22.5385C64.5737 22.5385 64.5033 22.5751 64.5033 22.6455C64.4667 22.6821 64.6131 22.6821 64.6131 22.6821L64.6497 22.5385H64.6469ZM65.4409 23.3691C65.4409 23.5127 65.4043 23.6225 65.4043 23.8027C65.4043 23.7295 65.5845 23.2255 65.5845 23.2255C65.5479 23.2255 65.4747 23.2621 65.4747 23.2621C65.4747 23.2987 65.4381 23.3353 65.4381 23.3691H65.4409ZM67.9664 18.5348C67.9664 18.4616 68.003 18.318 68.003 18.2448C67.9664 18.2448 67.9298 18.4616 67.896 18.4982L67.7524 18.6418L67.9692 18.5348H67.9664ZM68.293 18.4982L68.4732 18.3912C68.4732 18.3912 68.3634 18.3912 68.3634 18.318C68.3634 18.3912 68.3268 18.3912 68.2902 18.4982H68.293ZM68.5436 16.8737C68.4704 16.8737 68.4 17.0173 68.4 17.0173C68.4 17.0173 68.6534 16.8005 68.7238 16.7639C68.5802 16.7639 68.5436 16.8005 68.5436 16.8709V16.8737ZM69.8444 16.2261C69.7008 16.2627 69.4474 16.5499 69.4108 16.6963C69.5544 16.5527 69.7008 16.4429 69.8444 16.2261Z" fill="#253081"/>
<path d="M95.5303 26.6883C94.8461 27.806 93.2582 30.2949 92.391 30.2949C92.284 30.2949 92.1742 30.2583 92.0672 30.1513C90.8396 30.1513 90.1189 30.0781 89.4685 28.9238C89.1081 27.8426 88.9983 26.7586 88.9983 25.5677C88.9983 24.8103 89.0349 23.9797 89.0715 23.152C89.2883 19.9423 90.2259 12.1855 90.2259 9.26304C90.2259 8.93926 90.2259 8.68586 90.1893 8.46907C90.1893 8.43247 90.1527 8.39586 90.0795 8.39586C89.9359 8.39586 89.5023 8.89984 89.4657 8.97305C88.5281 9.98382 86.2898 14.6013 84.9214 17.9207L84.5977 18.6781C84.4879 19.0385 84.3443 19.3285 84.2007 19.6523L83.6235 20.9502C82.4691 23.6559 80.2674 28.6338 79.0764 29.4644L78.7893 29.6445C78.716 29.7177 78.6457 29.7177 78.6457 29.7515C78.4289 29.9683 77.8151 30.0753 77.5645 30.0753C77.3843 30.0753 76.0498 29.3883 75.9062 29.3179C75.4022 29.3179 75.039 28.7408 75.0052 28.5606C74.6082 27.5498 74.5012 26.6122 74.5012 24.9877V24.2669C74.5744 23.5095 74.6448 22.679 74.7546 21.8512C75.4754 16.2962 77.0999 11.0284 77.3167 6.44753C77.3167 6.23074 77.3533 6.01394 77.3533 5.76336C77.3533 4.82579 77.1731 3.92201 76.5228 3.70804C76.3426 3.60105 76.1258 3.63483 76.0526 3.52784C75.909 3.49124 75.8358 3.38425 75.8358 3.23784C75.8724 2.73387 76.5565 2.69727 77.0633 2.69727L77.9643 2.84086C79.0821 2.91406 79.7324 3.88823 80.0196 4.46541C80.4166 5.11579 80.5236 6.66714 80.5236 8.00169C80.5236 8.47188 80.5236 8.93926 80.487 9.29964C80.09 16.0456 77.7813 20.8799 77.7813 27.2654C77.7813 27.3386 77.8545 27.409 77.8883 27.5188C78.7555 26.4377 80.3068 22.6846 82.1087 18.3205L82.2889 17.887C83.6235 14.6773 86.9796 7.67791 88.6379 6.81073C88.7815 6.73753 88.9279 6.77413 89.1081 6.63054C89.2883 6.48695 89.1813 6.27015 89.5783 6.27015C90.4089 6.27015 92.2108 6.88393 92.284 7.35131L92.4276 7.60471C92.8246 8.68586 92.9682 10.1668 92.9682 11.8252C92.9682 16.3356 91.9208 22.4312 91.9208 26.9754C91.9208 27.806 91.9574 28.31 92.0644 28.31C92.101 28.31 92.208 28.203 92.2446 28.1664C93.1118 26.5785 94.8433 22.0342 96.3214 18.2445L96.6115 17.5238C98.0896 13.6271 99.2102 9.66003 100.435 5.94355L100.688 5.32977C100.688 5.32977 100.795 5.14958 100.832 5.14958L101.012 5.18618C101.012 5.25938 101.119 5.29317 101.119 5.32977L101.806 5.98015C101.806 6.12375 101.769 6.08714 101.696 6.23355C101.696 6.23355 101.806 6.12656 101.84 6.12656C101.84 6.16316 101.803 6.23355 101.803 6.23355C101.876 6.23355 101.91 6.23355 101.91 6.30675V6.81073C101.91 6.91772 101.767 7.31471 101.767 7.4949V7.63849C101.767 7.63849 101.91 7.4217 101.91 7.35131C101.91 7.17112 101.947 7.13452 102.02 7.06131C102.02 7.13452 102.02 7.60189 102.057 7.60189C101.983 7.85529 102.057 8.03548 101.913 8.21567C101.876 8.46907 101.84 8.61266 101.733 8.82945C101.589 9.04625 101.516 9.22644 101.479 9.51644C101.336 9.62343 101.336 9.73323 101.299 9.80362C101.299 9.98381 101.189 10.0204 101.119 10.0204C101.119 10.0204 101.119 9.80362 101.192 9.73042L101.085 9.76702C101.012 9.94721 100.869 10.271 100.795 10.3808C100.795 10.5244 100.759 10.9214 100.542 10.9214C100.542 10.9214 100.542 10.8482 100.579 10.7778C100.542 10.8144 100.542 10.851 100.542 10.851C100.542 10.8876 100.469 10.8876 100.432 10.8876C100.649 10.4906 101.082 9.47984 101.153 9.15605C101.153 9.11945 101.189 9.08285 101.189 9.01246C101.116 9.04906 101.046 9.04906 101.046 9.08567C101.046 9.15887 101.082 9.26586 101.082 9.37566C101.046 9.51925 100.973 9.55586 100.902 9.66566C100.902 9.70226 100.829 9.77265 100.792 9.84586L100.756 10.0626C100.646 10.1696 100.612 10.2794 100.576 10.3864L100.252 10.9636H100.432C100.395 11.1438 100.395 11.2874 100.325 11.3972C100.325 11.5042 100.252 11.5408 100.215 11.614C100.215 11.5408 100.252 11.3972 100.325 11.324L100.289 11.1438C100.252 11.324 100.072 11.5774 100.035 11.7576H100.179C100.215 11.7576 100.252 11.7576 100.286 11.7942C100.286 11.8674 100.249 11.9378 100.249 12.0476C100.212 12.0842 100.069 12.3714 100.069 12.4446C100.069 12.4812 100.032 12.6614 99.9619 12.698L99.8183 12.591C99.7817 12.698 99.7817 12.8078 99.7817 12.8444C99.7817 12.9176 99.7085 13.5285 99.6719 13.6018C99.7085 13.5651 99.7085 13.4948 99.7085 13.4582C99.7085 13.3146 99.8155 13.1682 99.8887 13.0978C99.8887 13.2048 99.8155 13.278 99.8155 13.385C99.8887 13.3118 99.9225 13.278 99.9225 13.2414C99.9957 13.0978 99.9957 12.8444 100.032 12.7374L100.212 12.3404L100.286 12.6304C100.286 12.5572 100.322 12.4868 100.322 12.4502C100.322 12.4136 100.322 12.3066 100.286 12.27C100.322 12.163 100.466 12.163 100.466 12.0898C100.429 12.0532 100.429 12.0166 100.429 11.9828C100.429 11.9096 100.393 11.8026 100.356 11.766C100.356 11.766 100.466 11.6928 100.5 11.6224C100.426 11.5858 100.393 11.5492 100.393 11.5492C100.393 11.5126 100.466 11.476 100.5 11.369C100.5 11.2958 100.609 11.1157 100.68 11.0087C100.753 10.8285 100.897 10.6483 100.897 10.4681C100.897 10.4315 101.004 10.3611 101.004 10.2879C101.004 10.2147 101.257 10.2147 101.294 10.1443C101.367 10.0007 101.294 9.82052 101.51 9.60372C101.547 9.53052 101.584 9.49673 101.584 9.46013C101.62 9.49673 101.62 9.53333 101.62 9.56712C101.584 9.60372 101.547 9.64032 101.547 9.67411C100.536 13.5708 98.4077 20.3534 95.702 26.3757L95.5218 26.6995L95.5303 26.6883ZM95.5303 25.3509C95.5303 25.3875 95.6035 25.6043 95.6035 25.6043C95.6401 25.6043 95.8203 25.2805 95.9639 24.7737C95.7471 25.0637 95.5303 25.2439 95.5303 25.3509ZM99.6072 13.1935C99.6072 13.1569 99.6072 13.0865 99.534 13.0499C99.534 13.1569 99.4974 13.1935 99.4974 13.2667C99.5706 13.2667 99.6043 13.1935 99.6043 13.1935H99.6072ZM100.435 10.5244C100.472 10.4512 100.472 10.4174 100.472 10.3808C100.508 10.3808 100.545 10.3442 100.545 10.3076C100.545 10.3076 100.472 10.3808 100.401 10.3808L100.438 10.5244H100.435ZM100.652 9.47984L100.508 9.84022V10.057C100.508 10.1302 100.508 10.2006 100.545 10.2006C100.581 10.2006 100.581 10.0204 100.652 9.76702C100.652 9.69382 100.725 9.66003 100.725 9.58683L100.798 9.33343C100.762 9.37003 100.725 9.37003 100.655 9.37003C100.618 9.37003 100.691 9.47702 100.655 9.47702L100.652 9.47984ZM100.762 9.04625C100.762 8.97305 100.725 8.97305 100.688 8.97305C100.688 9.04625 100.688 9.11664 100.615 9.15324C100.688 9.15324 100.688 9.08004 100.759 9.04625H100.762ZM101.265 9.37003C101.265 9.44324 101.302 9.51362 101.339 9.55023C101.339 9.51362 101.482 9.47702 101.482 9.33343C101.409 9.26023 101.339 9.22644 101.339 9.18984C101.339 9.15324 101.375 9.11664 101.412 9.08285L101.629 8.61266V8.46907C101.485 8.54227 101.485 8.61266 101.485 8.68586C101.449 8.79285 101.342 8.90266 101.342 9.00965C101.305 9.04625 101.305 9.08285 101.305 9.11664C101.268 9.15324 101.268 9.18984 101.268 9.22363V9.36722L101.265 9.37003ZM101.589 6.16035C101.626 6.12375 101.696 6.05336 101.696 5.98015L101.589 6.16035Z" fill="#253081"/>
<path d="M107.471 17.3801C107.508 17.6335 107.544 17.9573 107.544 18.2445C107.544 20.6968 105.416 24.9905 102.82 25.9647C102.566 26.0716 102.459 26.0716 102.316 26.0716H101.919C101.522 26.0716 101.015 25.928 100.584 25.7479C99.7903 25.6747 99.5735 24.7371 99.5735 23.6925C99.5735 22.648 99.8269 21.4204 99.9339 20.9868C99.9339 20.9136 99.9705 20.8798 99.9705 20.8066C99.9705 20.77 100.151 20.3364 100.151 20.3027C101.268 16.9128 103.29 14.0269 105.599 13.8467H105.996C106.105 13.8467 106.646 13.9537 106.716 14.0635C106.823 14.0635 107.006 14.1367 107.006 14.1367C107.006 14.2099 107.006 14.3535 106.826 14.4605C106.539 14.6041 106.212 14.8208 105.889 15.1474C106.359 15.3642 106.753 15.6514 107.006 16.0484C108.918 16.0118 111.12 15.6514 112.418 15.4712C112.528 15.4712 111.734 16.5524 111.66 16.589C111.157 16.7692 110.579 16.8762 109.892 16.986C109.819 16.986 109.749 17.0226 109.676 17.0226C108.882 17.1662 108.197 17.3126 107.474 17.383L107.471 17.3801ZM105.559 17.4505H105.272C104.982 17.4505 104.695 17.3773 104.478 17.2337L103.938 18.4951C103.107 20.5166 102.276 22.572 102.062 24.4105C102.062 24.4471 102.206 24.3739 102.243 24.3739C102.279 24.3739 102.316 24.3007 102.35 24.3007C103.721 23.0393 105.416 20.007 105.559 17.6279V17.4477V17.4505ZM105.559 22.2144C105.489 22.251 105.416 22.2876 105.416 22.3214C105.416 22.3552 105.489 22.358 105.489 22.465C105.525 22.4284 105.559 22.3214 105.559 22.2116V22.2144ZM106.173 21.457L106.063 21.7104C106.027 21.8174 105.883 22.144 105.773 22.2144C105.737 22.251 105.953 22.1412 105.953 22.1412C106.027 21.961 106.17 21.8174 106.243 21.5274C106.243 21.4908 106.243 21.3838 106.28 21.3472C106.243 21.3472 106.207 21.3838 106.173 21.4542V21.457ZM106.029 21.2402C106.029 21.2402 106.066 21.3134 106.103 21.3472C105.959 21.5274 105.886 21.671 105.849 21.8174C105.886 21.8174 105.959 21.7808 105.959 21.7104C106.032 21.6372 106.066 21.4936 106.139 21.457L106.103 21.0234L106.029 21.2402ZM106.86 19.9761C106.823 19.9761 106.787 19.9761 106.787 19.9029C106.823 19.7959 106.894 19.6861 106.967 19.6129C106.75 19.6861 106.643 20.083 106.643 20.297C106.5 20.3702 106.426 20.7672 106.426 20.801C106.463 20.801 106.607 20.7278 106.607 20.7278C106.607 20.6912 106.643 20.6208 106.643 20.5476C106.643 20.511 106.68 20.404 106.68 20.3674C106.823 20.2942 106.79 20.114 106.86 19.9704V19.9761ZM106.894 18.9315C106.894 19.0751 106.857 19.1849 106.857 19.4017C106.93 19.2947 106.964 19.1849 107.001 19.0779L106.891 18.9343L106.894 18.9315ZM106.894 19.7255C106.894 19.7621 106.93 19.7987 106.93 19.8325C107.004 19.7959 107.004 19.6889 107.004 19.6889C106.93 19.6889 106.894 19.7255 106.894 19.7255ZM107.22 18.4979V18.8949C107.294 18.7513 107.327 18.6415 107.327 18.5345C107.327 18.4613 107.291 18.4275 107.291 18.3543L107.218 18.4979H107.22Z" fill="#253081"/>
<path d="M108.411 26.6886C108.302 26.6886 108.302 26.3648 108.302 26.2916C108.302 26.2184 108.302 26.1846 108.338 26.148C108.338 26.041 108.338 25.9678 108.411 25.751V25.1006C108.448 24.9936 108.485 24.957 108.555 24.9204L108.592 24.4164C109.205 21.2405 110.07 18.9684 110.864 15.6855C110.9 15.5053 111.007 15.2153 111.007 14.9282C111.007 14.8212 111.187 14.6748 111.187 14.6382C111.294 14.4946 111.441 14.4214 111.658 14.3848C111.731 14.3848 112.378 14.6382 112.705 14.6748C112.885 14.6748 113.209 14.855 113.246 15.0718C113.462 15.2885 113.499 15.5053 113.499 15.7925V16.2261C113.499 16.7667 113.462 16.7667 113.389 17.3439C114.29 16.1529 116.312 14.7452 117.429 14.7452C117.719 14.7452 117.97 14.9253 118.08 15.1421C118.08 15.1787 118.116 15.2491 118.116 15.2857C118.116 15.3589 118.08 15.3589 118.007 15.3589C117.826 15.4321 117.61 15.4659 116.745 15.9361C116.602 15.9361 116.528 16.0093 116.528 16.0797L116.238 16.3331C116.131 16.3331 115.985 16.4401 115.985 16.5499L115.154 17.4509C115.045 17.5945 114.864 17.7043 114.831 17.7746C114.614 17.9548 114.541 18.135 114.36 18.3152C114.36 18.3152 114.36 18.3884 114.254 18.3884C114.217 18.4954 114.11 18.6052 114.11 18.7122C114 18.7854 113.93 18.9656 113.93 19.036C113.859 19.1092 113.786 19.1092 113.786 19.1796C113.786 19.1796 113.786 19.2162 113.75 19.3232L113.643 19.3964C113.643 19.4696 113.569 19.5034 113.569 19.5766C113.606 19.6132 113.389 19.6498 113.389 19.6836C113.389 19.7568 113.353 19.8272 113.353 19.9004C113.243 19.9736 113.172 20.2241 113.172 20.2973C113.029 20.4775 112.882 20.5873 112.668 20.9843C112.668 20.9477 112.595 20.8773 112.595 20.9111C112.595 20.9843 112.595 21.0181 112.632 21.0181C112.632 21.1251 112.595 21.1251 112.525 21.1251C112.525 21.1983 112.488 21.2687 112.488 21.3053V21.4489C112.452 21.6291 112.415 21.4855 112.415 21.6657C112.308 21.6657 112.308 21.7389 112.235 21.8459C112.235 21.7389 112.235 21.7023 112.271 21.7023C112.271 21.6291 112.308 21.5587 112.308 21.5587C112.308 21.5953 112.235 21.4855 112.198 21.4855C112.198 21.4855 112.162 21.5221 112.235 21.3785C112.235 21.3053 112.271 21.2349 112.271 21.1983C112.345 21.1251 112.345 21.0913 112.345 21.0181C112.238 21.0181 112.091 21.4151 112.055 21.4517C112.055 21.4517 111.981 21.6685 111.981 21.7417C111.908 21.7417 111.908 21.8487 111.908 21.9219C111.872 22.0289 111.728 22.3555 111.728 22.4259C111.728 22.4625 111.835 22.1021 111.981 22.0289C112.018 21.8487 112.055 21.7389 112.091 21.7389C112.091 21.6657 112.091 21.5587 112.164 21.5587C112.164 21.5587 112.128 21.8825 112.091 22.0289L112.235 21.9219C112.198 22.0655 112.125 22.1021 112.055 22.1387V22.3189C112.055 22.3189 112.055 22.4259 111.948 22.4259C111.911 22.6061 111.874 22.6793 111.838 22.6793C111.801 22.6793 111.801 22.5357 111.801 22.5357C111.621 22.6089 111.548 22.7525 111.548 22.9327L111.511 23.1495C111.618 22.9327 111.618 22.8257 111.618 22.7525C111.728 22.7525 111.728 22.7891 111.728 22.8257C111.728 22.8257 111.728 22.9327 111.618 23.0425C111.618 23.0791 111.582 23.1157 111.582 23.1495C111.582 23.1832 111.618 23.2227 111.655 23.2227C111.655 23.2227 111.618 23.3297 111.582 23.2959L111.328 23.7295C111.328 23.8364 111.328 23.9462 111.255 24.0195V24.2728C111.145 24.3798 111.145 24.4896 111.111 24.5966C111.111 24.5966 111.075 25.1372 110.968 25.1372L110.895 25.4976C110.895 25.5708 110.751 26.0382 110.788 26.0382C110.788 26.0382 110.861 25.7848 110.895 25.751C110.968 25.751 111.038 25.3174 111.038 25.2808C111.038 25.2808 111.145 24.9204 111.145 24.8472C111.182 24.7402 111.255 24.5234 111.289 24.4136C111.289 24.3066 111.362 24.1968 111.362 24.1236C111.362 24.0166 111.472 23.9434 111.472 23.8702C111.472 23.7632 111.579 23.6534 111.615 23.5802C111.615 23.4732 111.652 23.4 111.689 23.2931C111.689 23.2198 111.798 23.1129 111.832 23.0763L111.796 23.3297C111.796 23.4732 111.686 23.6168 111.686 23.6534C111.649 23.69 111.579 23.9068 111.579 23.9434C111.615 23.98 111.615 24.0166 111.615 24.0504C111.615 24.1236 111.579 24.1574 111.579 24.194L111.472 24.1208C111.472 24.2278 111.399 24.2644 111.362 24.301C111.435 24.3742 111.435 24.408 111.435 24.4812C111.435 24.5178 111.579 24.2278 111.689 24.1208C111.689 24.194 111.689 24.301 111.582 24.4108C111.545 24.5178 111.545 24.591 111.545 24.591C111.435 24.6642 111.435 24.698 111.435 24.7346C111.435 24.7712 111.435 24.8416 111.399 24.8782L111.182 25.3484V25.6722C111.255 25.6356 111.255 25.599 111.255 25.5652C111.218 25.5286 111.218 25.492 111.218 25.4582C111.218 25.385 111.255 25.3146 111.255 25.278C111.292 25.278 111.328 25.278 111.362 25.2414C111.362 25.278 111.399 25.385 111.399 25.4582C111.399 25.5314 111.362 25.5652 111.362 25.5652C111.362 25.5652 111.362 25.6722 111.472 25.6722C111.472 25.5652 111.472 25.4554 111.579 25.4554C111.579 25.5624 111.472 25.6722 111.472 25.7454L111.435 26.0325C111.362 26.0691 111.182 26.5027 111.182 26.5731C111.145 26.4999 111.109 26.4661 111.109 26.4295L110.999 26.5731V26.3197C110.962 26.3197 110.928 26.3929 110.892 26.3929C110.892 26.3929 110.892 26.2493 110.928 26.2127C110.928 26.2127 110.928 26.1395 110.999 26.1395C110.999 26.1395 111.035 25.9959 111.072 25.9227C111.145 25.8861 111.182 25.8861 111.182 25.8495C111.182 25.7425 110.821 26.1733 110.821 26.2099C110.821 26.3169 110.821 26.3901 110.714 26.4633C110.714 26.5703 110.714 26.6801 110.605 26.7871C110.641 26.7505 110.498 27.0039 110.388 27.0405C110.351 27.0771 110.281 27.1475 110.208 27.1475H109.991C109.918 27.0405 109.811 27.0405 109.737 26.9673C109.737 26.9673 109.521 26.9673 109.447 26.8941C109.304 26.8941 108.4 26.8209 108.4 26.6773L108.411 26.6886ZM109.816 25.8214C109.78 25.8214 109.706 25.858 109.706 25.965C109.633 25.965 109.599 26.072 109.599 26.1086C109.599 26.1452 109.636 26.1818 109.673 26.2156C109.673 26.3225 109.673 26.3957 109.599 26.3957C109.636 26.4323 109.673 26.5759 109.673 26.5759C109.709 26.5759 109.78 26.3957 109.78 26.3225C109.78 26.179 109.816 26.1423 109.853 26.0691C109.816 26.1423 109.78 26.1057 109.709 26.1424C109.709 25.9988 109.746 25.9988 109.853 25.9256C109.853 25.8524 109.853 25.8186 109.816 25.8186V25.8214ZM110.213 25.461C110.103 25.461 110.033 25.461 110.033 25.6412C110.033 25.6046 110.07 25.568 110.106 25.568C110.216 25.568 110.216 25.4948 110.216 25.461H110.213ZM110.286 22.5385C110.213 22.5385 110.143 22.5751 110.143 22.6455C110.106 22.6821 110.25 22.6821 110.25 22.6821L110.286 22.5385ZM111.08 23.3691C111.08 23.5127 111.044 23.6225 111.044 23.8027C111.044 23.7295 111.224 23.2255 111.224 23.2255C111.187 23.2255 111.117 23.2621 111.117 23.2621C111.117 23.2987 111.08 23.3353 111.08 23.3691ZM113.603 18.5348C113.603 18.4616 113.64 18.318 113.64 18.2448C113.603 18.2448 113.567 18.4616 113.53 18.4982L113.386 18.6418L113.603 18.5348ZM113.93 18.4982L114.11 18.3912C114.11 18.3912 114 18.3912 114 18.318C114 18.3912 113.964 18.3912 113.927 18.4982H113.93ZM114.183 16.8737C114.11 16.8737 114.04 17.0173 114.04 17.0173C114.04 17.0173 114.293 16.8005 114.363 16.7639C114.22 16.7639 114.183 16.8005 114.183 16.8709V16.8737ZM115.481 16.2261C115.337 16.2627 115.084 16.5499 115.047 16.6963C115.191 16.5527 115.337 16.4429 115.481 16.2261Z" fill="#253081"/>
<path d="M129.694 22.2516C129.621 22.3952 129.477 22.5754 129.404 22.6852L129.331 22.7922C128.934 23.5861 128.069 24.6335 127.599 25.3909L127.419 25.6077C127.312 25.6077 127.095 25.6809 127.095 25.8245C127.059 25.8611 126.985 25.9315 126.985 25.9681C126.985 26.0047 126.985 26.0751 126.949 26.0751C126.876 26.2552 126.552 26.5086 126.515 26.5086C126.515 26.3284 126.588 26.2552 126.588 26.1849C126.588 26.1483 126.878 25.8949 126.842 25.8611L126.552 26.0779C126.552 26.2215 126.515 26.2215 126.481 26.2215C126.445 26.2947 126.408 26.3284 126.408 26.365C126.408 26.5086 126.408 26.655 126.481 26.655C126.121 27.1252 124.786 28.3134 124.243 28.3134C123.595 28.3134 123.232 28.06 122.835 27.7362L122.726 27.6292C122.185 27.1252 122.005 26.2215 122.005 25.2135V24.7799C122.041 23.6622 122.185 22.8316 122.295 22.291L121.284 23.6256C120.634 24.4561 120.49 24.4195 120.13 24.7799C119.876 24.9967 119.589 25.1769 119.155 25.1769C119.082 25.2135 119.048 25.2135 118.975 25.2135C118.542 25.2135 118.108 25.1403 117.748 24.9601C117.277 24.6363 116.27 23.482 116.27 23.1554C116.27 20.1597 118.578 16.049 121.428 14.9312C121.535 14.8946 121.751 14.858 121.898 14.858C122.368 14.858 123.449 15.5084 123.809 15.5084C124.603 13.4531 126.408 8.94265 126.839 7.6447C126.949 7.28432 127.236 6.67053 127.38 6.16656C127.38 5.98636 127.523 5.84277 127.703 5.84277C128.064 5.84277 129.001 6.34675 129.111 6.74374C129.218 6.78034 129.218 7.21393 129.218 7.35752V7.6447C129.001 9.59304 126.766 15.2578 125.792 18.4675C125.792 18.5041 125.685 18.7913 125.685 18.8645C125.181 20.5595 124.387 23.7354 124.097 25.2867C124.06 25.5767 124.06 25.9005 124.06 26.0441C124.06 26.1877 124.06 27.0182 124.167 27.0182C124.781 26.945 126.656 24.3857 128.388 21.9672C129.505 20.3793 130.806 18.3943 131.273 17.8172C131.31 17.7806 131.347 17.7806 131.417 17.7806L131.307 17.9973V18.2507C131.38 18.1071 131.487 17.8904 131.487 17.927C131.487 18.1438 131.524 18.3971 131.487 18.5773C131.594 18.3971 131.631 18.4337 131.631 18.4337C131.631 18.507 131.521 18.5773 131.521 18.6871L131.448 19.0841L131.521 18.9405C131.521 19.0137 131.485 19.0841 131.485 19.0841L131.411 19.3375C131.411 19.4811 129.823 22.0798 129.68 22.26L129.694 22.2516ZM123.092 17.0204C122.478 17.0204 119.735 20.0865 118.654 23.3327C118.654 23.3693 118.691 23.5129 118.691 23.5129C118.691 23.5129 118.691 23.4059 118.727 23.4059C119.595 23.0822 122.407 18.4281 123.092 17.0204ZM119.341 21.3112C119.161 21.2746 119.017 21.8152 119.017 21.8518C119.017 21.8884 119.017 21.9588 119.054 21.925C119.054 21.8518 119.198 21.5646 119.344 21.3112H119.341ZM119.521 20.8804L119.305 21.0606C119.341 21.0606 119.448 21.1338 119.448 21.1338C119.485 21.0972 119.521 21.0268 119.521 20.8804ZM122.334 21.9982L122.407 21.7448C121.794 22.5754 121.109 23.5495 120.496 24.1971C120.315 24.3773 120.172 24.4505 120.025 24.7011L120.71 24.0873C120.963 23.8705 121.577 23.0061 122.334 21.9954V21.9982ZM120.172 19.4361L120.099 19.6529L120.315 19.3291C120.242 19.3657 120.172 19.4023 120.172 19.4361ZM122.407 21.6012L122.481 21.3478L121.903 22.1052C121.94 22.1052 121.109 23.1525 120.893 23.4763C121.29 23.0061 121.687 22.5022 121.687 22.5022C122.337 21.6716 122.407 21.6012 122.407 21.6012ZM121.326 18.3183L121.47 18.1747C121.506 18.1381 121.543 18.0677 121.58 18.0677C121.653 17.9945 121.87 17.8143 121.87 17.8143C121.796 17.8509 121.653 17.8875 121.58 17.9579C121.58 17.9579 121.543 18.0311 121.47 18.0311C121.363 18.1381 121.146 18.5351 121.216 18.5013C121.253 18.4647 121.323 18.3577 121.323 18.3211L121.326 18.3183ZM121.506 17.4511L121.83 17.4145L121.867 17.2709C121.757 17.2709 121.543 17.3779 121.506 17.4511ZM122.371 24.3435C122.371 24.4167 122.334 24.5237 122.334 24.5237C122.334 24.5237 122.441 24.4167 122.441 24.3435C122.441 24.3435 122.441 24.2703 122.368 24.2365C122.405 24.2365 122.405 24.1999 122.478 24.0563C122.405 24.0563 122.368 24.0929 122.334 24.1633C122.334 24.2365 122.371 24.3069 122.371 24.3435ZM122.697 24.9545H122.517C122.59 25.0277 122.59 25.0981 122.627 25.1347L122.7 24.9545C122.737 25.0615 122.773 25.0615 122.773 25.0615C122.773 25.0981 122.88 24.8447 122.88 24.8447C122.844 24.8081 122.737 24.9517 122.7 24.9517L122.697 24.9545ZM122.661 25.7147C122.624 25.7147 122.517 25.7879 122.517 25.8217C122.517 25.8554 122.517 25.8949 122.554 25.9286C122.554 25.8554 122.627 25.7851 122.661 25.7119V25.7147ZM123.201 25.2445L123.165 25.4979C123.201 25.4613 123.238 25.4247 123.238 25.3909C123.238 25.3571 123.238 25.2839 123.201 25.2473V25.2445ZM123.815 26.2918C123.852 26.472 123.888 26.5818 123.888 26.6522C123.888 26.7226 123.852 26.7254 123.852 26.7592C123.852 26.8662 123.925 26.9028 123.962 26.9394L123.888 26.2186V25.9286C123.852 26.0722 123.815 26.2524 123.815 26.289V26.2918ZM124.102 19.7599V19.9034C124.102 19.9767 124.102 20.047 124.139 20.0836C124.175 19.94 124.212 19.8668 124.212 19.8302C124.212 19.7936 124.175 19.6867 124.175 19.6501C124.175 19.6867 124.105 19.7233 124.105 19.757L124.102 19.7599ZM124.896 21.024C124.896 20.9874 124.969 20.6636 125.437 19.1827L125.183 19.5431C125.183 19.7233 125.11 20.0836 125.003 20.1934C124.93 20.4102 124.86 20.6974 124.786 20.8438C124.75 20.917 124.677 21.0972 124.677 21.024C124.677 20.9874 124.713 20.8438 124.857 20.3033L124.677 20.3399L124.75 20.4834C124.606 20.5566 124.533 21.0606 124.496 20.9536C124.46 20.9536 124.387 21.0606 124.387 21.0972C124.387 21.2042 124.423 21.2774 124.423 21.3506C124.423 21.3872 124.313 21.5308 124.28 21.604L124.243 22.108C124.243 22.0714 124.353 22.0348 124.353 21.9644L124.389 21.711L124.499 21.8546C124.463 22.108 124.282 22.902 124.282 23.2624L124.643 21.9278C124.716 21.7842 124.75 21.7842 124.786 21.7842C124.786 21.6772 124.75 21.6406 124.713 21.604L124.82 21.2436C124.82 21.1704 124.893 21.0634 124.893 21.0268L124.896 21.024ZM124.606 19.9429L124.499 19.8359C124.499 19.9091 124.572 20.1963 124.572 20.1963C124.716 20.0527 124.716 19.9429 124.716 19.9429C124.716 19.9429 124.753 19.9063 124.606 19.9429ZM125.58 18.6787L125.437 18.6421L125.364 18.8955C125.364 18.8955 125.437 18.9321 125.437 19.0025C125.437 18.8589 125.547 18.7857 125.58 18.6787ZM125.617 18.3915L125.761 17.9213C125.651 17.9945 125.58 18.1015 125.544 18.2113C125.544 18.2845 125.507 18.3549 125.507 18.4647C125.544 18.4647 125.617 18.4281 125.617 18.3915ZM130.198 20.1934L129.837 20.6974C129.801 20.734 129.764 20.7706 129.764 20.8044C129.837 20.8044 129.908 20.7312 129.981 20.6608L130.161 20.4074C130.161 20.3342 130.161 20.2638 130.198 20.1906V20.1934ZM130.958 19.7599L130.848 20.0133C131.102 19.7233 131.102 19.6895 131.102 19.6895L131.245 19.4361C131.138 19.5431 130.958 19.6895 130.958 19.7599Z" fill="#253081"/>
<path d="M129.984 25.0265C130.021 24.8097 130.851 24.1621 131.031 24.0523C130.851 24.2691 130.311 24.7027 130.311 24.8463C130.454 24.6661 130.924 24.2691 130.961 24.2325C131.071 24.2325 130.998 24.1959 131.071 24.1959C131.071 24.1593 131.144 24.0523 131.144 24.0523C131.144 24.0157 131.144 23.9791 131.181 23.9453L131.29 23.8383C131.577 23.5849 132.445 22.974 132.698 22.791L132.411 22.1406C131.654 20.5892 131.076 19.0379 131.076 17.4133C131.076 14.7808 133.962 12.7593 136.127 12.7593C136.201 12.7593 136.778 12.9029 136.778 12.9029L137.896 13.3731C138.689 13.3731 139.374 14.9976 139.374 15.5382C139.374 16.1886 138.903 16.8727 138.543 17.1965H138.399C138.363 17.1965 138.219 17.4865 137.929 17.4865C137.639 17.4865 137.569 17.4499 137.532 17.4499C137.459 17.4499 137.135 17.3429 137.099 17.3429C136.919 17.2697 136.702 17.1627 136.702 17.0529C136.702 16.8727 137.206 15.5748 137.206 14.8878C137.169 14.6344 137.099 14.6344 137.026 14.6344H136.882C135.511 14.6344 133.779 15.6452 133.779 17.2669C133.779 18.4579 134.79 20.4766 135.187 21.3072C136.992 20.1894 140.058 18.6015 141.176 17.5907C141.176 17.7709 140.455 18.3847 140.275 18.4213C140.565 18.4213 140.455 18.3481 141.032 17.9877C140.815 18.2777 140.562 18.4213 140.562 18.4579L140.345 18.6747C140.238 18.7817 140.886 18.2777 140.922 18.2777C140.959 18.2777 141.066 18.2411 141.102 18.2777C140.779 18.4213 140.922 18.5311 140.525 18.8549C140.849 18.8549 141.102 18.6381 141.173 18.5311C141.136 18.7845 140.812 19.0351 140.489 19.2519C140.489 19.3588 140.489 19.5052 140.632 19.432C140.632 19.6122 139.802 20.1162 139.154 20.5132L135.691 22.6417C135.835 23.0387 135.908 23.2921 135.981 23.9397C136.018 24.1199 136.018 24.2635 136.018 24.4437C136.018 26.9326 133.455 28.5571 131.507 28.5571L131.037 28.4839C130.063 28.4107 129.232 27.4028 129.232 26.6792C129.232 26.209 129.305 26.0288 129.556 25.6684C129.666 25.4882 129.99 25.1982 129.99 25.018L129.984 25.0265ZM131.065 26.9382C132.183 26.865 133.517 25.567 133.087 24.3761C132.149 25.0265 130.778 26.2878 130.778 26.6116C130.778 26.6848 130.488 26.7552 130.524 26.8284C130.668 26.9354 130.885 26.9354 131.065 26.9354V26.9382ZM132.977 17.8469C132.94 17.9201 132.87 17.9539 132.87 18.0271C132.87 18.0637 132.943 18.1003 132.977 18.1341V17.8441V17.8469ZM134.348 21.096C134.348 21.1692 134.385 21.3128 134.421 21.4564L134.601 21.6366L134.348 21.096ZM134.638 26.3976C134.601 26.4708 134.565 26.5412 134.565 26.5778C134.565 26.5778 134.601 26.6144 134.638 26.7214V26.3976ZM135.035 21.3466C134.925 21.203 134.745 20.8426 134.638 20.6258C134.711 20.8792 134.818 21.31 134.925 21.4198L135.035 21.3466ZM134.745 24.9899C134.745 25.0265 134.852 25.0969 134.889 25.0969C134.925 25.0603 134.962 24.8801 134.962 24.8435L134.745 24.9871V24.9899ZM134.998 25.9274C134.925 26.0344 134.818 26.2512 134.818 26.3976C134.925 26.2174 134.925 26.1442 134.925 26.1076L134.998 25.9274ZM135.215 26.5778C135.252 26.5778 135.288 26.5412 135.325 26.4342C135.398 26.361 135.398 26.2174 135.398 26.1808C135.325 26.3244 135.181 26.5778 135.218 26.5778H135.215ZM135.466 22.791C135.719 23.5483 135.756 24.1621 135.756 24.9561C135.719 25.2799 135.646 25.6065 135.539 25.8233L135.502 26.0035C135.683 25.6797 135.863 25.0659 135.863 24.4155C135.863 23.9819 135.79 23.3343 135.573 22.7206L135.466 22.7938V22.791Z" fill="#253081"/>
<path d="M140.052 26.7415C141.187 26.7415 142.107 25.8213 142.107 24.6862C142.107 23.5511 141.187 22.6309 140.052 22.6309C138.917 22.6309 137.997 23.5511 137.997 24.6862C137.997 25.8213 138.917 26.7415 140.052 26.7415Z" stroke="#253081" stroke-width="0.380094" stroke-miterlimit="10"/>
<path d="M138.658 24.3512V24.0415H139.796V24.3512H139.413V25.331H139.039V24.3512H138.661H138.658ZM140.824 25.3282H140.531L140.252 24.3934V25.3282H139.911V24.0415H140.446L140.68 24.782L140.911 24.0415H141.446V25.3282H141.105V24.3934L140.826 25.3282H140.824Z" fill="#253081"/>
<path fill-rule="evenodd" clip-rule="evenodd" d="M159.854 4.48511L155.039 12.5656C147.772 15.4825 144.14 16.9409 144.14 16.9409L150.177 10.5216C150.768 10.8538 151.528 10.7524 152.012 10.2372C152.584 9.63187 152.553 8.67741 151.948 8.10586C151.342 7.53431 150.388 7.56529 149.816 8.17062C149.335 8.68304 149.281 9.44605 149.642 10.0148L143.605 16.4342C143.605 16.4342 144.838 12.7177 147.302 5.28753L155.05 0L155.698 0.60252L159.856 4.4823L159.854 4.48511Z" fill="#E50071"/>
<path opacity="0.3" fill-rule="evenodd" clip-rule="evenodd" d="M157.435 2.23047L159.854 4.4857L155.039 12.5662C147.772 15.4831 144.14 16.9415 144.14 16.9415L150.177 10.5222C150.768 10.8544 151.528 10.753 152.012 10.2378C152.584 9.63245 152.553 8.678 151.948 8.10645" fill="white"/>
</g>
<defs>
<clipPath id="clip0_356_880">
<rect width="159.854" height="40" fill="white"/>
</clipPath>
</defs>
</svg>
