<svg width="38" height="39" viewBox="0 0 38 39" fill="none" xmlns="http://www.w3.org/2000/svg">
<path d="M17.6698 7.80888C18.0912 6.47777 19.9091 6.47777 20.3305 7.80888L22.3626 14.2279C22.6806 15.2323 23.5981 15.9244 24.6463 15.9244H31.2226C32.5529 15.9244 33.1672 17.711 32.0405 18.5511L26.7202 22.5183C25.8802 23.1446 25.5348 24.2478 25.8522 25.2502L27.8844 31.6692C28.3213 33.0494 26.7971 34.0887 25.7361 33.2976L20.4158 29.3305C19.5726 28.7017 18.4277 28.7017 17.5845 29.3305L12.2641 33.2976C11.2032 34.0887 9.67897 33.0494 10.1159 31.6692L12.1481 25.2502C12.4655 24.2478 12.1201 23.1446 11.2801 22.5183L5.95976 18.5511C4.83308 17.711 5.44735 15.9244 6.77767 15.9244H13.3539C14.4022 15.9244 15.3196 15.2323 15.6376 14.2279L17.6698 7.80888Z" stroke="#E50071"/>
</svg>
