<svg width="28" height="28" viewBox="0 0 28 28" fill="none" xmlns="http://www.w3.org/2000/svg">
<g clip-path="url(#clip0_404_1221)">
<path d="M0.52002 8.02L1.08002 5.58L2.78002 2.88L5.82002 0.9L7.97002 0.5L11.45 1.28L13.63 2.9L16.42 1L19.5 0.52L22.7 1.47L25.08 3.59L26.38 6.15L26.71 9.42L26.05 12.03L24.26 14.76L21.63 17.39L17.98 20.76L14.73 23.62L13.63 24.56L11.02 22.59L7.31002 19.73L5.92002 18.61L3.44002 15.59L1.17002 11.9L0.52002 8.98V8.02Z" fill="#E50071"/>
<path d="M13.6202 24.5599C13.6202 24.5599 20.5902 18.6599 24.2502 14.7599C27.5602 11.2299 27.4902 6.07993 24.4802 2.88993C21.4702 -0.300075 16.6202 -0.290075 13.6202 2.90993C10.6202 -0.280075 5.77018 -0.290075 2.76018 2.88993C0.490184 5.28993 -0.109816 8.79993 1.15018 11.8999C1.15018 11.8999 3.94018 16.9499 5.91018 18.6099C7.88018 20.2699 13.6202 24.5599 13.6202 24.5599Z" stroke="#E50071" stroke-miterlimit="10"/>
<path d="M1.52984 19.38L2.29984 15.52L2.77984 13.11L3.41984 12.11L4.14984 12.02L4.92984 12.65L5.12984 14.65L5.49984 16.7L9.12984 13.08L10.8198 11.38L11.7798 11.24L12.7098 11.86L13.0498 12.38L13.9298 11.7L14.8298 11.92L15.3798 12.64L15.2698 13.31L15.2398 13.92L16.0798 14.18C16.0798 14.18 16.4098 14.68 16.4098 14.9C16.4098 15.12 15.5998 16.27 15.5998 16.27L15.7498 16.78C15.7498 16.78 16.4298 16.36 16.5298 16.95C16.6298 17.54 16.7898 18.14 16.7898 18.14L15.8498 19.39L11.1098 24.05L9.15984 25.9C9.15984 25.9 5.89984 27.83 3.42984 25.66C0.959843 23.49 1.43984 22.06 1.40984 21.68C1.37984 21.3 1.53984 19.38 1.53984 19.38H1.52984Z" fill="white"/>
<path d="M6.96022 15.25L5.50022 16.7L5.42022 16.28L4.94022 13.64L4.83022 13.06C4.83022 12.5 4.39022 12.04 3.83022 12.04C3.32022 12.04 2.90022 12.4 2.82022 12.89C2.82022 12.89 1.30022 20.5 1.26022 20.74V20.76C1.26022 20.76 1.26022 20.78 1.26022 20.79C1.03022 22.22 1.41022 23.74 2.42022 24.93C4.23022 27.07 7.42022 27.35 9.58022 25.6C9.58022 25.6 9.71022 25.5 9.71022 25.49L13.3802 21.69" stroke="#E50071" stroke-miterlimit="10"/>
<path d="M6.96045 15.2501L10.8204 11.3901C11.2604 10.9501 11.9804 10.9501 12.4304 11.3901C12.8704 11.8301 12.8704 12.5501 12.4304 13.0001L8.65045 16.7801" stroke="#E50071" stroke-miterlimit="10"/>
<path d="M10.5103 18.1301L15.0603 13.5801C15.5003 13.1401 15.5003 12.4201 15.0603 11.9701C14.6203 11.5301 13.9003 11.5301 13.4503 11.9701L11.4903 13.9301" stroke="#E50071" stroke-miterlimit="10"/>
<path d="M11.7803 20.0701L16.0703 15.7801C16.5103 15.3401 16.5103 14.6201 16.0703 14.1701C15.6303 13.7301 14.9103 13.7301 14.4603 14.1701" stroke="#E50071" stroke-miterlimit="10"/>
<path d="M13.3901 21.6801L16.5201 18.5501C16.9601 18.1101 16.9601 17.3901 16.5201 16.9401C16.0801 16.5001 15.3601 16.5001 14.9101 16.9401" stroke="#E50071" stroke-miterlimit="10"/>
<path d="M9.13018 3.54995C8.82018 3.47995 8.51018 3.44995 8.19018 3.44995C7.87018 3.44995 7.56018 3.47995 7.25018 3.54995C6.94018 3.61995 6.65018 3.70995 6.36018 3.83995C6.07018 3.96995 5.80018 4.11995 5.54018 4.30995C5.28018 4.49995 5.03018 4.70995 4.80018 4.94995C4.44018 5.33995 4.14018 5.76995 3.91018 6.23995C3.68018 6.70995 3.52018 7.20995 3.43018 7.71995" stroke="white" stroke-miterlimit="10" stroke-linecap="round"/>
</g>
<defs>
<clipPath id="clip0_404_1221">
<rect width="27.23" height="27.23" fill="white"/>
</clipPath>
</defs>
</svg>
