<svg width="27" height="25" viewBox="0 0 27 25" fill="none" xmlns="http://www.w3.org/2000/svg">
<path d="M12.7125 3.54666L13.5053 4.55402L14.2894 3.5399C15.4953 1.98035 17.3524 1 19.4591 1C23.1 1 26.1049 3.94377 25.9971 7.49485L25.997 7.4997C25.9481 9.41973 25.17 11.4181 23.9461 13.379C22.7264 15.3333 21.1046 17.1853 19.4641 18.7961C17.8269 20.4037 16.1926 21.7499 14.9661 22.6951C14.3536 23.167 13.8447 23.5374 13.4905 23.7888C13.4892 23.7897 13.4878 23.7907 13.4865 23.7917C13.4848 23.7905 13.4832 23.7894 13.4816 23.7883C13.1225 23.5435 12.6066 23.1823 11.9864 22.7205C10.7442 21.7957 9.09174 20.4742 7.4434 18.8843C5.79172 17.2912 4.16714 15.4506 2.96072 13.4906C1.7515 11.526 1 9.50292 1 7.52519C1 3.92286 3.92531 1 7.53763 1C9.6367 1 11.4999 2.00586 12.7125 3.54666Z" stroke="#E50071" stroke-width="2"/>
</svg>
