<svg width="33" height="33" viewBox="0 0 33 33" fill="none" xmlns="http://www.w3.org/2000/svg">
<g clip-path="url(#clip0_404_1321)">
<path d="M4.90921 27.5417L3.26046 24.8313L1.38688 20.6844L0.5625 15.7757L2.42359 8.90586L4.43457 5.72077L8.06931 2.36081L13.1405 0.974365H18.1242L24.969 3.11025L28.916 7.03228L31.2018 10.7669L32.4508 16.5001L30.4399 24.2817L27.8793 27.904L23.8698 30.4395L18.1991 32.3756L13.9024 31.876L9.69308 30.8517L6.64539 31.876L3.49778 32.8752L4.63442 30.3021L5.53373 28.5035L4.90921 27.5417Z" fill="#E50071"/>
<path d="M20.0725 25.6557H13.3776V24.7314C13.5899 24.7064 13.8148 24.6939 14.0396 24.6689C14.2644 24.6439 14.4643 24.6065 14.6391 24.5565C14.9014 24.4691 15.1013 24.3317 15.2262 24.1193C15.3511 23.907 15.4136 23.6322 15.4136 23.2949V14.7389C15.4136 14.4392 15.3511 14.1644 15.2137 13.9146C15.0763 13.6647 14.889 13.4649 14.6391 13.29C14.4643 13.1776 14.202 13.0777 13.8647 13.0027C13.5275 12.9278 13.2152 12.8778 12.9404 12.8529V11.9286L17.8367 11.6163L18.0366 11.8161V23.1326C18.0366 23.4573 18.099 23.7321 18.2239 23.9445C18.3488 24.1568 18.5487 24.3192 18.8235 24.4191C19.0233 24.5065 19.2232 24.569 19.423 24.6189C19.6229 24.6689 19.8352 24.7064 20.085 24.7189V25.6432L20.0725 25.6557ZM18.3114 8.044C18.3114 8.58109 18.1365 9.04324 17.7868 9.44294C17.437 9.84264 16.9999 10.0425 16.4877 10.0425C16.0131 10.0425 15.5884 9.85513 15.2387 9.46792C14.889 9.0932 14.7141 8.65603 14.7141 8.1689C14.7141 7.65679 14.889 7.20713 15.2387 6.81993C15.5884 6.43272 16.0006 6.24536 16.4877 6.24536C17.0248 6.24536 17.462 6.42023 17.7992 6.78245C18.1365 7.14468 18.3114 7.55687 18.3114 8.044Z" fill="white"/>
<path d="M16.5 33C14.1143 33 11.816 32.5004 9.65519 31.5136C7.41938 32.6128 3.59727 32.8626 3.42241 32.8751C3.14762 32.8876 2.8978 32.7377 2.78539 32.5004C2.67298 32.2506 2.72294 31.9633 2.9103 31.7634C4.00946 30.6018 5.30848 28.6283 4.75889 28.0912C1.68622 24.9811 0 20.8592 0 16.5C0 7.40689 7.40689 0 16.5 0C25.5931 0 33 7.40689 33 16.5C33 25.5931 25.5931 33 16.5 33ZM9.64269 30.1272C9.74262 30.1272 9.84254 30.1522 9.92998 30.1896C11.9909 31.1764 14.2017 31.676 16.5 31.676C24.8687 31.676 31.6885 24.8687 31.6885 16.4875C31.6885 8.10636 24.8687 1.31151 16.5 1.31151C8.13134 1.31151 1.31151 8.13134 1.31151 16.5C1.31151 20.5095 2.86033 24.3066 5.68319 27.1669C6.81983 28.3036 5.85806 30.1397 4.92127 31.4012C6.27025 31.2139 8.16881 30.8641 9.30545 30.2146C9.40537 30.1522 9.51779 30.1272 9.6302 30.1272H9.64269Z" fill="#E50071"/>
</g>
<defs>
<clipPath id="clip0_404_1321">
<rect width="33" height="33" fill="white"/>
</clipPath>
</defs>
</svg>
