<svg width="23" height="23" viewBox="0 0 23 23" fill="none" xmlns="http://www.w3.org/2000/svg">
<g clip-path="url(#clip0_404_1366)">
<path d="M11.4998 6.39551C8.6703 6.39551 6.37646 8.69608 6.37646 11.5339C6.37646 14.7977 8.89523 15.1996 9.10182 18.1635C9.1173 18.3855 9.30089 18.5581 9.52276 18.5581H13.4769C13.6988 18.5581 13.8824 18.3855 13.8978 18.1635C14.1043 15.1986 16.6232 14.7838 16.6232 11.5339C16.6232 8.69608 14.3294 6.39551 11.4998 6.39551ZM11.5003 8.33876C9.74432 8.33876 8.31576 9.77151 8.31576 11.5327C8.31576 11.7583 8.1334 11.9412 7.90847 11.9412C7.68355 11.9412 7.50119 11.7583 7.50119 11.5327C7.50119 9.32106 9.29518 7.5218 11.5003 7.5218C11.7253 7.5218 11.9076 7.70469 11.9076 7.93028C11.9076 8.15586 11.7253 8.33876 11.5003 8.33876Z" fill="white"/>
<path d="M13.3882 19.0439H9.61241C9.3381 19.0439 9.11572 19.267 9.11572 19.5421C9.11572 19.8172 9.3381 20.0402 9.61241 20.0402H13.3882C13.6625 20.0402 13.8848 19.8172 13.8848 19.5421C13.8848 19.267 13.6625 19.0439 13.3882 19.0439Z" fill="white"/>
<path d="M13.3882 20.5264H9.61241C9.3381 20.5264 9.11572 20.7494 9.11572 21.0245C9.11572 21.2996 9.3381 21.5227 9.61241 21.5227H13.3882C13.6625 21.5227 13.8848 21.2996 13.8848 21.0245C13.8848 20.7494 13.6625 20.5264 13.3882 20.5264Z" fill="white"/>
<path d="M10.6058 23.0002H12.3947C12.9433 23.0002 13.3881 22.5541 13.3881 22.0039H9.6123C9.6123 22.5541 10.0571 23.0002 10.6057 23.0002H10.6058Z" fill="white"/>
<path d="M22.4908 11.0229H19.9032C19.622 11.0229 19.394 11.2515 19.394 11.5336C19.394 11.8156 19.622 12.0442 19.9032 12.0442H22.4908C22.772 12.0442 23 11.8155 23 11.5336C23 11.2516 22.772 11.0229 22.4908 11.0229Z" fill="white"/>
<path d="M17.4422 6.08487C17.5724 6.08487 17.7027 6.03503 17.8022 5.93536L19.6321 4.10015C19.8309 3.90071 19.8309 3.5775 19.6321 3.37806C19.4333 3.17872 19.1109 3.17862 18.9121 3.37806L17.0822 5.21327C16.8834 5.41271 16.8834 5.73592 17.0822 5.93536C17.1817 6.03503 17.312 6.08487 17.4423 6.08487H17.4422Z" fill="white"/>
<path d="M11.4998 3.6165C11.781 3.6165 12.0089 3.38795 12.0089 3.1059V0.510603C12.0089 0.228546 11.781 0 11.4998 0C11.2187 0 10.9907 0.228546 10.9907 0.510603V3.1059C10.9907 3.38795 11.2186 3.6165 11.4998 3.6165Z" fill="white"/>
<path d="M4.08836 3.3781C3.88951 3.17866 3.56724 3.17866 3.36838 3.3781C3.16952 3.57754 3.16952 3.90075 3.36838 4.10019L5.19822 5.9354C5.2976 6.03507 5.42793 6.0849 5.55826 6.0849C5.68859 6.0849 5.81882 6.03507 5.9183 5.9354C6.11716 5.73596 6.11716 5.41264 5.9183 5.21331L4.08857 3.3781H4.08836Z" fill="white"/>
<path d="M3.60591 11.5336C3.60591 11.2515 3.37794 11.0229 3.09681 11.0229H0.509109C0.227877 11.0229 0 11.2515 0 11.5336C0 11.8156 0.227877 12.0442 0.509109 12.0442H3.09681C3.37794 12.0442 3.60591 11.8155 3.60591 11.5336Z" fill="white"/>
<path d="M5.19822 17.1319L3.36838 18.9671C3.16952 19.1666 3.16952 19.4898 3.36838 19.6892C3.46776 19.7889 3.59809 19.8387 3.72842 19.8387C3.85876 19.8387 3.98898 19.7889 4.08846 19.6892L5.9182 17.854C6.11706 17.6546 6.11706 17.3314 5.9182 17.1319C5.71934 16.9326 5.39708 16.9326 5.19822 17.1319Z" fill="white"/>
<path d="M17.8017 17.1319C17.6029 16.9326 17.2805 16.9326 17.0817 17.1319C16.883 17.3313 16.8829 17.6546 17.0817 17.854L18.9116 19.6892C19.0109 19.7889 19.1413 19.8387 19.2716 19.8387C19.4019 19.8387 19.5322 19.7889 19.6316 19.6892C19.8305 19.4898 19.8305 19.1666 19.6316 18.9671L17.8018 17.1319H17.8017Z" fill="white"/>
</g>
<defs>
<clipPath id="clip0_404_1366">
<rect width="23" height="23" fill="white"/>
</clipPath>
</defs>
</svg>
