<svg width="28" height="41" viewBox="0 0 28 41" fill="none" xmlns="http://www.w3.org/2000/svg">
<g clip-path="url(#clip0_404_1163)">
<path d="M12.2791 26.5294L3.80119 30.3787C1.79862 31.2816 -0.491745 29.5233 0.0838437 27.4085C0.0838437 27.3967 0.0838437 27.3848 0.0838437 27.361L2.72196 18.1417C3.33352 16.0269 5.31211 14.5537 7.51853 14.5537H10.0247C9.86885 15.0408 9.7969 15.5517 9.7969 16.0744C9.7969 17.8803 10.7682 19.5198 12.2671 20.4227V21.3969L8.87356 22.9295V20.7079C8.87356 20.2208 8.47785 19.8287 7.9862 19.8287C7.49455 19.8287 7.09883 20.2208 7.09883 20.7079V24.2958C7.09883 24.5928 7.25472 24.878 7.50654 25.0324C7.75836 25.1869 8.08213 25.2225 8.35793 25.0918L12.2671 23.3097V26.5175L12.2791 26.5294Z" fill="#E50071"/>
<path d="M27.9999 19.508V30.6283C27.9999 31.2223 27.88 31.8163 27.5802 32.3272C26.9687 33.3846 25.8654 33.9905 24.7023 33.9905C24.1507 33.9905 23.635 33.8598 23.1794 33.6222V40.1328C23.1794 40.6199 22.7836 41.0119 22.292 41.0119H7.99821C7.50656 41.0119 7.11084 40.6199 7.11084 40.1328V30.8184L12.2791 28.4779V30.8184C12.2791 32.2678 13.4783 33.4559 14.9412 33.4559C16.4042 33.4559 17.6033 32.2678 17.6033 30.8184V20.4347C19.1143 19.5318 20.0736 17.8922 20.0736 16.0864C20.0736 15.5636 19.9896 15.0528 19.8457 14.5657H23.0235C25.7815 14.5657 28.0119 16.7873 28.0119 19.508H27.9999Z" fill="#E50071"/>
<path d="M18.2987 16.0863C18.2987 17.6189 17.2554 18.902 15.8285 19.2941V30.8183C15.8285 31.3054 15.4327 31.6975 14.9411 31.6975C14.4494 31.6975 14.0537 31.3054 14.0537 30.8183V19.2941C12.6268 18.902 11.5835 17.6189 11.5835 16.0863C11.5835 14.2567 13.0944 12.7598 14.9411 12.7598C16.7878 12.7598 18.2987 14.2567 18.2987 16.0863Z" fill="#E50071"/>
<path d="M18.9251 10.4134C21.4125 8.2378 21.6486 4.47635 19.4527 2.01203C17.2568 -0.452296 13.4602 -0.686311 10.9729 1.48934C8.4856 3.665 8.24941 7.42644 10.4454 9.89076C12.6413 12.3551 16.4378 12.5891 18.9251 10.4134Z" fill="#E50071"/>
</g>
<defs>
<clipPath id="clip0_404_1163">
<rect width="28" height="41" fill="white"/>
</clipPath>
</defs>
</svg>
