<svg width="46" height="46" viewBox="0 0 46 46" fill="none" xmlns="http://www.w3.org/2000/svg">
<g clip-path="url(#clip0_404_1177)">
<path d="M27.3066 5.75009C27.3066 8.13189 25.3699 10.0566 23.0001 10.0566C20.6303 10.0566 18.6936 8.13189 18.6936 5.75009C18.6936 3.36829 20.6303 1.4436 23.0001 1.4436C25.3699 1.4436 27.3066 3.36829 27.3066 5.75009ZM35.9316 20.1251H10.0566C8.46871 20.1251 7.33796 20.931 7.54245 21.9174C7.83116 23.3489 7.97551 24.0707 8.26421 25.5142C8.46871 26.5006 9.79193 27.3066 11.2354 27.3066H13.2684L12.9917 23.7098C12.9556 23.3249 13.2684 23.0001 13.6533 23.0001H32.3468C32.7318 23.0001 33.0445 23.3369 33.0085 23.7098L32.7318 27.3066H34.7647C36.2082 27.3066 37.5435 26.5006 37.736 25.5142C38.0247 24.0827 38.169 23.361 38.4577 21.9174C38.6622 20.931 37.5315 20.1251 35.9436 20.1251H35.9316ZM14.3751 24.4316L15.6983 42.9567C15.7585 43.8589 16.408 44.5566 17.1899 44.5566H28.8102C29.5921 44.5566 30.2417 43.8589 30.3019 42.9567L31.6251 24.4316H14.3751ZM25.8751 11.5001C25.5142 14.1225 24.7804 15.9389 24.1429 17.0817C24.0948 14.8923 23.7218 12.9436 23.7218 12.9436C23.7218 12.9436 24.4436 12.1858 24.4436 11.5121H21.5686C21.5686 12.1858 22.2904 12.9436 22.2904 12.9436C22.2904 12.9436 21.9054 14.8923 21.8693 17.0817C21.2318 15.9389 20.498 14.1225 20.1371 11.5001C18.7056 11.5001 14.3871 11.5001 14.3871 15.8066V18.6816H31.6371V15.8066C31.6371 11.5001 27.3306 11.5001 25.8871 11.5001H25.8751Z" fill="#E50071"/>
</g>
<defs>
<clipPath id="clip0_404_1177">
<rect width="46" height="46" fill="white"/>
</clipPath>
</defs>
</svg>
