<svg width="36" height="36" viewBox="0 0 36 36" fill="none" xmlns="http://www.w3.org/2000/svg">
<g clip-path="url(#clip0_404_1264)">
<path fill-rule="evenodd" clip-rule="evenodd" d="M29.6432 4.77407L25.7124 0.843262L8.25076 12.973L1.53076 32.4324L12.2205 21.7427L12.1556 21.2757C12.1167 20.4584 12.0908 19.5892 12.1167 18.9016C12.1686 17.293 13.3881 16.1125 14.841 16.0735C16.294 16.0346 17.4227 17.1762 17.3837 18.6162C18.8367 18.5643 19.9783 19.706 19.9264 21.1589C19.8875 22.6119 18.694 23.8314 17.0983 23.8833C16.4108 23.9092 15.5416 23.8833 14.7243 23.8443L14.2572 23.7795L3.56752 34.4692L23.027 27.7492L35.1567 10.2746L31.2259 6.3438L29.6432 4.7611V4.77407Z" fill="#E50071" stroke="#E50071" stroke-miterlimit="10"/>
</g>
<defs>
<clipPath id="clip0_404_1264">
<rect width="36" height="36" fill="white"/>
</clipPath>
</defs>
</svg>
