<svg width="28" height="25" viewBox="0 0 28 25" fill="none" xmlns="http://www.w3.org/2000/svg">
<path d="M28 0.71012V0.690128C28 0.660141 28 0.620157 28 0.59017C28 0.59017 28 0.580174 28 0.570178C28 0.530195 27.99 0.500208 27.9801 0.460225V0.440233C27.9701 0.40025 27.9502 0.370263 27.9303 0.33028C27.8108 0.130364 27.5918 0.00041844 27.3628 0.00041844H0.659911C0.381134 -0.00957735 0.142182 0.160351 0.0426187 0.420242C-0.0569446 0.680132 0.022706 0.97001 0.231789 1.14993L10.7457 10.1361L10.7656 10.2261L13.3542 24.4601C13.404 24.73 13.6231 24.9399 13.8919 24.9899C14.1507 25.0399 14.4395 24.8999 14.5689 24.67L27.9203 0.97001C27.9203 0.97001 27.9203 0.950018 27.9303 0.950018C27.9303 0.950018 27.9303 0.950018 27.9303 0.940023C27.9701 0.870052 27.99 0.790086 27.99 0.71012H28ZM24.8737 1.30987L11.4327 8.98663L2.44209 1.30987H24.8737ZM14.32 22.431L12.0798 10.1162L25.6105 2.38941L14.32 22.431Z" fill="#E50071"/>
</svg>
