<svg width="12" height="23" viewBox="0 0 12 23" fill="none" xmlns="http://www.w3.org/2000/svg">
<path d="M0.755396 17.8963C0.94372 17.8963 1.13204 17.8294 1.27768 17.6956C3.1107 16.0147 4.12012 13.7557 4.12012 11.3342C4.12012 8.91275 3.15464 6.75647 1.40072 5.08758C1.10693 4.80804 0.629847 4.80804 0.334806 5.08758C0.0410209 5.36713 0.0410209 5.82108 0.334806 6.10181C1.80373 7.49952 2.61227 9.35834 2.61227 11.3342C2.61227 13.3101 1.76607 15.2562 0.2306 16.6634C-0.0694628 16.9382 -0.0782509 17.3921 0.210512 17.6765C0.358661 17.8222 0.555773 17.8963 0.752885 17.8963H0.755396Z" fill="white"/>
<path d="M3.85409 20.31C4.0512 20.31 4.24832 20.2359 4.39646 20.0902C6.78943 17.726 8.10645 14.6153 8.10645 11.3325C8.10645 8.04965 6.78818 4.93647 4.39395 2.57233C4.10519 2.28681 3.6281 2.27845 3.3293 2.55321C3.02923 2.82797 3.02044 3.28193 3.30921 3.56625C5.43099 5.6628 6.59985 8.41998 6.59985 11.3325C6.59985 14.2449 5.43225 16.9997 3.31046 19.0963C3.0217 19.3818 3.03049 19.8357 3.33055 20.1093C3.47619 20.2431 3.66451 20.31 3.85284 20.31H3.85409Z" fill="white"/>
<path d="M6.87327 22.6666C7.0754 22.6666 7.27753 22.5889 7.42568 22.4372C10.3761 19.4089 12.002 15.4654 12.002 11.3332C12.002 7.20106 10.3761 3.25763 7.42443 0.229275C7.14194 -0.0610166 6.66485 -0.0777412 6.35977 0.191048C6.05468 0.459836 6.03711 0.913791 6.31959 1.20408C9.01263 3.96604 10.4954 7.56303 10.4954 11.3332C10.4954 15.1035 9.01262 18.7004 6.32085 21.4624C6.03836 21.7527 6.05594 22.2066 6.36102 22.4754C6.50541 22.6033 6.68996 22.6666 6.87327 22.6666Z" fill="white"/>
</svg>
