<svg width="42" height="32" viewBox="0 0 42 32" fill="none" xmlns="http://www.w3.org/2000/svg">
<g clip-path="url(#clip0_404_1285)">
<path d="M22.6349 22.6178L21.8604 31.9999H34.512L34.9792 25.0434L36.7374 31.9999H41.9874C41.9874 31.9999 40.6595 23.295 39.3194 19.1211C39.3194 19.1211 37.4013 22.2977 22.6226 22.6178H22.6349Z" fill="#E50071"/>
<path d="M13.4752 11.9184C16.758 11.9184 19.4261 9.24663 19.4261 5.95922C19.4261 2.6718 16.758 0 13.4752 0C10.1924 0 7.52441 2.6718 7.52441 5.95922C7.52441 9.24663 10.1924 11.9184 13.4752 11.9184Z" fill="#E50071"/>
<path d="M33.1965 12.5463C33.59 11.7952 33.8236 10.9333 33.8236 10.0222C33.8236 7.03029 31.4014 4.60474 28.4137 4.60474C25.426 4.60474 23.0039 7.03029 23.0039 10.0222C23.0039 10.8595 23.2006 11.6598 23.5449 12.3616C25.5859 12.7679 30.9465 13.0141 33.1965 12.5339V12.5463Z" fill="#E50071"/>
<path d="M7.00837 23.6399L7.47559 32H19.8567L20.7912 20.7095C20.7912 20.7095 24.2092 20.5494 28.0207 20.2909C32.7543 19.9831 34.6846 19.3551 36.1108 18.7518C37.5002 18.1608 38.4838 17.5575 38.4592 16.4248C38.4223 14.9104 37.2543 13.9007 35.7789 14.1101C31.6231 14.7134 29.3731 14.701 27.578 14.6641C22.5985 14.5656 19.4264 13.3467 14.0535 13.3467C6.99608 13.3467 5.00427 14.4179 3.51657 16.9173C1.85673 19.6876 -0.0244141 31.9877 -0.0244141 31.9877H5.22559L6.99608 23.6276L7.00837 23.6399Z" fill="#E50071"/>
</g>
<defs>
<clipPath id="clip0_404_1285">
<rect width="42" height="32" fill="white"/>
</clipPath>
</defs>
</svg>
