<svg width="28" height="26" viewBox="0 0 28 26" fill="none" xmlns="http://www.w3.org/2000/svg">
<path d="M23.481 16.3874C25.154 13.676 26.2528 10.6101 26.2842 8.46313C24.6894 8.03487 22.3456 8.21355 19.9704 8.89707C20.0853 5.41425 19.5085 1.97965 18.4383 0C16.4234 0.692026 13.8786 2.82483 11.8218 5.4965C10.475 3.26443 8.84637 1.42376 7.39779 0.584252C6.09798 2.20654 5.02525 5.28095 4.59981 8.51418C2.96591 7.70588 1.34768 7.23791 0.123561 7.26911C-0.429771 10.1904 0.914411 15.6585 3.37308 18.8577C5.82915 22.0569 8.45487 22.0512 10.9109 21.311C12.2812 23.648 14.2283 25.5596 18.0233 24.9668C21.8184 24.3769 26.185 21.2911 27.5735 18.7159C26.6835 17.8055 25.1932 16.9745 23.481 16.3874Z" fill="#F4A9C1"/>
<path d="M18.7516 15.5193C18.8038 15.386 18.8534 15.2498 18.903 15.108C19.5607 13.2447 19.9001 11.0608 19.9731 8.89114C17.9738 9.46405 15.9536 10.3915 14.3354 11.6139C13.8865 9.53211 12.9547 7.37379 11.8219 5.49341C10.5404 7.1554 9.44677 9.02728 8.78904 10.8906C8.73945 11.0296 8.69508 11.1657 8.6507 11.3019C7.45269 10.1788 6.01976 9.21446 4.59989 8.51109C4.34411 10.4482 4.32062 12.442 4.62078 14.2118C5.42206 18.934 8.05561 20.5421 10.9084 21.3107C13.5002 22.8139 16.4496 23.5343 19.9522 20.6074C21.2651 19.5098 22.4762 18.0123 23.4784 16.3871C21.9933 15.8766 20.3359 15.5561 18.7516 15.5193Z" fill="#EB588F"/>
<path d="M18.7517 15.5207C18.0783 15.5065 17.4206 15.5349 16.7942 15.6341C15.8624 15.7788 15.0767 16.0369 14.4112 16.3772C14.6879 15.2172 14.7322 13.8587 14.4582 12.2449C14.4216 12.035 14.3799 11.8252 14.3355 11.6153C14.1711 11.7372 14.0118 11.8649 13.8552 11.9925C12.6572 12.9937 11.8559 14.0345 11.347 15.0981C11.0625 14.3579 10.637 13.5978 10.0341 12.8122C9.62956 12.2846 9.15714 11.7826 8.64818 11.3062C7.26224 15.6228 8.54639 18.5242 10.4935 20.8357C10.1803 21.315 9.79399 21.851 9.34506 22.3729C8.35846 23.5187 7.47626 24.2845 7.46582 24.293L8.23318 25.3424C8.27233 25.3083 9.19107 24.5114 10.2455 23.289C10.8615 22.5743 11.3679 21.8397 11.7437 21.2327C14.5312 20.8924 17.1674 19.6246 18.7517 15.5207Z" fill="#E50071"/>
</svg>
